<svg xmlns="http://www.w3.org/2000/svg" width="2560" height="1440" viewBox="0 0 2560 1440">
    <defs>
        <style>
            .cls-1{fill:#009ba7;}
            .cls-2{fill:#000002;}
            .cls-3{fill:#fafdfd;}
            .cls-4{fill:#95bc11;}
            .cls-5{fill:#e5f5f6;}
            .cls-6{fill:#e6f6f7;}
            .cls-7{fill:#f0f9fa;}
            .cls-8{fill:#e4f5f6;}
            .cls-9{fill:#eef9f9;}
            .cls-10{fill:#ecf8f9;}
            .cls-11{fill:#ebf8f8;}
            .cls-12{fill:#e9f7f7;}
            .cls-13{fill:#ceeef0;}
            .cls-14{fill:#dcf2f4;}
            .cls-15{fill:#e7f6f7;}
            .cls-16{fill:#edf8f9;}
            .cls-17{fill:#fefefe;}
            .cls-18{fill:#b9e6e9;}
            .cls-19{fill:#eef8f9;}
            .cls-20{fill:#019da8;}
            .cls-21{fill:#009ca8;}
            .cls-22{fill:#029da9;}
            .cls-23{fill:#019ca8;}
            .cls-24{fill:#019da9;}
        </style>
    </defs>
    <rect class="cls-1" width="2560" height="1440"/>
    <path class="cls-2" d="M1384.15,396.65c0-30.1-.19-60.21,0-90.31.2-25,11.59-36.39,36.37-36.55,33.12-.21,66.24.09,99.35-.07,58.7-.28,125.18,56.08,122.57,130.4-2.35,66.8-56.34,122.91-123.11,123.59-33.7.34-67.41.43-101.12.58-20.54.09-33.67-12.41-34-33.71C1383.8,459.28,1384.15,428,1384.15,396.65Z"/>
    <path class="cls-2" d="M1174.52,385c0,33.57.08,67.15,0,100.73-.09,26-11.69,39-34.33,38.76-19.88-.2-30.65-13.46-30.68-38.22-.07-59.55.29-119.11-.22-178.66-.14-16,3.84-28.93,19.22-35.26s29.21-2.14,41.06,9.61q55.1,54.63,110.48,109c6.37,6.26,13.16,12.1,19.69,18.07,6.15-4.12,3.42-9.38,3.46-13.61.32-31.88-.34-63.78.5-95.64.5-18.86,12.81-29.53,31.48-29.92,18.36-.39,31.48,10.32,31.68,29.3.68,65.55.37,131.12.2,196.68,0,12.79-7.12,22.19-18.7,26.22-13.07,4.54-26,3.12-36.71-7.44-39.91-39.18-80-78.14-119.84-117.4-4.64-4.56-8-10.45-11.89-15.73Z"/>
    <path class="cls-2" d="M1165.48,770.25c-24.07,0-48.15.28-72.22-.08s-31.8-7.75-32-31q-.45-73.12,0-146.24c.15-24.16,8.69-32.73,32.48-32.85q74-.36,148,0c20.17.1,30.8,10,30.35,27.3-.42,16.34-10.87,25.47-30.17,25.56q-56.87.27-113.74-.06c-9.32-.07-15.71,0-15.57,12.86.12,12.26,5.35,13.49,15.28,13.33,28.88-.47,57.78-.36,86.66-.09,20,.18,31.48,10.31,31.51,26.88,0,15.4-9.06,22.91-28.91,25-28.83,3-57.59,1.47-86.41,0-8.76-.44-17.8-1.82-18.11,12.87-.31,14.89,7.59,14.73,18.11,14.66,37.32-.28,74.63-.21,111.94-.06,20.22.08,29,7.95,29.41,25.55.34,16.76-9.18,25.87-29.08,26.23C1217.24,770.6,1191.36,770.25,1165.48,770.25Z"/>
    <path class="cls-2" d="M998.89,690.83c12.25,11.65,23.39,21.75,34,32.42,13.89,14,15.11,26.33,4.52,37.88-10.44,11.37-27.09,12.45-40.43.74-21.69-19-43.64-38-63.21-59.18-12.2-13.17-25.93-9.91-39.78-10.24-7.48-.17-5.36,6.7-5.46,11-.3,12.64.49,25.33-.3,37.93-1.16,18.47-11.85,28.74-28.12,28.36-17-.39-25.2-10-25.25-30.22q-.2-74.07,0-148.14c.07-21.23,9.25-31,30.62-31.27q56.89-.69,113.81,0c33.77.38,59,20.75,66.46,52.57,7,30.13-7.4,57.77-38.3,73.36C1004.75,687.35,1002.22,688.94,998.89,690.83Z"/>
    <path class="cls-2" d="M1446.2,677.49c0-31-.12-57.47,0-83.92.13-21.55,9.73-33.28,27-33.53,16.55-.25,26.54,12.18,26.58,33.59.09,47.56-.26,95.11.21,142.66.14,13.75-2.49,25.59-15.83,31.4-13.94,6.07-25.57.25-35.73-9.81q-48.11-47.64-96.4-95.09c-2.83-2.8-5.76-5.51-11.25-10.74,0,29.08,0,54.67,0,80.26,0,4.81.38,9.71-.34,14.42-2.26,14.73-14.92,25-29.42,23.25-15.35-1.82-23.72-11-23.77-26.56q-.21-77.65,0-155.31c0-11.79,4.74-20.64,16.17-25.55,12.28-5.29,22.41-1.44,31.15,7,31.17,30.07,62.07,60.42,93.11,90.62C1432.67,665.07,1437.89,669.75,1446.2,677.49Z"/>
    <path class="cls-2" d="M963.37,368.85C939.85,415.37,918,458.72,896,502c-10.34,20.35-26.7,27.67-43.64,19.87s-22.33-26-12.28-46.14q47.07-94.28,95.12-188c12.62-24.55,43.16-25.9,56-1.39,34,64.87,66.53,130.49,98.86,196.2,7.54,15.34.7,30.61-13.89,38.16-15.73,8.13-32.74,4-41.8-12.45-13.32-24.15-25-49.2-37.5-73.83C986.31,413.55,975.62,392.79,963.37,368.85Z"/>
    <path class="cls-2" d="M1619.59,560c24.68,0,49.37-.15,74.05,0,20,.16,31.43,10.07,31.45,26.67,0,16.81-11,26-31.51,26.27h-1.8c-46.15.27-46.15.27-46.15,45.64,0,27.08.19,54.18-.07,81.26-.19,19.22-9.63,30-25.66,30.24-17.08.24-26.15-10.39-26.2-31.13-.09-37.33-.46-74.66.22-112,.21-11.22-3.18-15-14.24-14.23-12,.82-24.07.42-36.11.12-19-.46-29.35-9.94-29.41-26.44-.05-16.14,10.39-26,29.58-26.36C1569,559.62,1594.31,560,1619.59,560Z"/>
    <path class="cls-2" d="M1725.19,397.43c0,30.68.23,61.35-.07,92-.23,23.11-10.88,34.05-32.32,34.27-21.06.22-33.49-11-33.7-33.48q-.87-93.81,0-187.64c.2-21.27,14.16-33.32,34.74-32.83,19.56.47,31,12.46,31.27,33.84C1725.44,334.88,1725.19,366.16,1725.19,397.43Z"/>
    <path class="cls-4" d="M1163.72,980c51.56,15.4,101.1,28,136.14,68.73,23.32,27.09,16.12,65.11-16.45,94.29-4.56-36.53-13.94-70.51-42.6-96,13.18,27,23.1,54.57,20.84,85.36-1.75,23.88-5.7,27.32-28.6,20.74-31.37-9-45.42-27.29-46.86-61.85-.55-13.2-.1-26.44-.11-39.66C1186.07,1013.13,1186.07,1013.13,1163.72,980Z"/>
    <path class="cls-4" d="M1401.68,1076.11c-16.38,13.16-25.82,28.64-31.86,46.9-3,9-7.06,17.76-11.13,26.4-3.39,7.21-8.69,13.1-16,16.46-13.18,6-28.67,9.05-39-1.06-8.28-8.13,0-21.82,6.24-29.14,12.3-14.51,14.06-30.5,13.46-47.8-.3-8.5,3.78-11.86,12-11.8C1357.48,1076.21,1379.58,1076.11,1401.68,1076.11Z"/>
    <path class="cls-5" d="M1195.56,915.49c-1.42,3.92,1.09,15.85-3,13.74-12.65-6.44-24,9.68-35.89-.51-5.54-4.75-11.77-8.77-13.62-15.88-3.78-14.54,1-26.09,15-32.43,13.41-6.06,24.57-1.72,32.88,9.7C1196,897.17,1196.49,905.66,1195.56,915.49Z"/>
    <path class="cls-6" d="M1475.32,894.18c-.65,7.12.53,15.09-2.33,21.16-5.09,10.79-14.28,18.31-27.37,16.13-12.14-2-21.21-8.66-22.47-22a195,195,0,0,1-.64-26.91c.8-17.68,10.53-27.26,26.66-27.08,16,.18,25.1,10.08,25.58,27.85.1,3.59,0,7.19,0,10.79Z"/>
    <path class="cls-7" d="M1088,925c0,5.9.26,10.63-.07,15.31s1.57,9.59-4.67,17.66c-.38-23.39-2.8-43.16,1.49-62.54,2.92-13.15,19-20.09,31.77-16,14.11,4.58,21.59,18.11,18.14,32.84-3,12.82-17.21,22-30.52,19C1099,930.18,1094.22,927.47,1088,925Z"/>
    <path class="cls-8" d="M1029.26,931.77c-14.92.53-27.71-11.9-27.81-27-.09-14.07,11.88-26.4,26.1-26.89,14-.49,26.76,11,27.76,25.19C1056.33,917.48,1043.84,931.24,1029.26,931.77Z"/>
    <path class="cls-9" d="M989.29,884.72c.51-9.86,1-18.54,1.41-27.21l3.3,0c0,16.24.39,32.49-.11,48.72-.48,15.79-13.55,27-28.33,25.25-15.86-1.9-25.8-16.26-22.52-32.53,3-14.75,18-24.18,32.52-20C980,880.23,984.14,882.52,989.29,884.72Z"/>
    <path class="cls-10" d="M1283.17,917.08c-.06.82-.49,6.13-.91,11.44-9.49-5.81-17,3.76-26,3.26-14.62-.81-25.48-12.11-25.35-27.13.13-15.29,10.91-26.58,25.53-26.73C1273.42,877.75,1283.15,890.37,1283.17,917.08Z"/>
    <path class="cls-11" d="M1709.65,913.29c4,23-16.72,15-25.77,17.5-14.22,3.86-26.82-10.9-26.47-26.57.34-15.09,11.38-26.26,26-26.29C1700.66,877.88,1709.66,889.91,1709.65,913.29Z"/>
    <path class="cls-12" d="M936.13,907.58c-1.11,13.9-14.72,25.36-28.56,24.06-15.63-1.48-25.27-13.94-23.52-30.4a26,26,0,0,1,27.22-23.32C926.16,878.86,937.35,892.22,936.13,907.58Z"/>
    <path class="cls-13" d="M1483.92,929.19c0-21.81-.33-43.64.19-65.44.16-6.45,4.65-11.21,11.59-11.66,8.36-.53,12.5,4.35,15.26,14.09-8-1.65-15.46-13.34-20.1-2-3,7.25-1.4,16.49-1.34,24.84.1,13.17,15.89,1.25,18.89,12.68-25.22-3.88-18.24,15.28-19.27,29Z"/>
    <path class="cls-14" d="M1392.56,880.57a67.71,67.71,0,0,1,0,37.55c-2.6,9-10.07,14-19.15,13.36-9.41-.63-16.91-5.13-18.77-16-2-11.65-3.07-23.11,4.55-34.62,0,9-.47,18,.13,26.87s3.7,17.1,14.72,16.6c10.61-.48,13.8-7.68,13.51-17.39-.26-8.85,0-17.72,0-26.58Z"/>
    <path class="cls-15" d="M1313.23,926.93c3.73-4.49,8.77-2.46,13.12-2.55,6.29-.14,13.15-.19,13.46-8,.29-7.27-5.68-10-12.4-9.69-13,.59-19-7-15-17.85,5.72-15.24,19-11.65,34.2-8.57-7.14,6.17-13.12,4.38-18.39,4.47-5.57.1-9.68,1.86-10.13,7.68-.46,6.08,4,8.42,9.18,8.63,10,.41,18.14,2.77,18.26,14.81C1345.7,929.74,1330.55,935,1313.23,926.93Z"/>
    <path class="cls-5" d="M1571.71,925.16c-11.8,10.87-23.24,6.15-31.8-3.55-10-11.32-9.29-25.18,1.35-35.78,8.58-8.54,19.72-12.92,34.33-.2-10.6.24-18.18-3.29-24.52,1-6.71,4.49-12,10.11-11.29,19.14C1540.8,919.31,1552.38,925.84,1571.71,925.16Z"/>
    <path class="cls-16" d="M1647.48,929.5c-7.29-15.52,5.26-43.65-24-44-30.44-.36-16.1,28.83-24.63,43.76.27-16.12-8.38-33.92,9.67-46.5,10-7,20.69-6.8,30.09.58C1654.65,896,1648.5,913.27,1647.48,929.5Z"/>
    <path class="cls-17" d="M1523.92,881.53V929.7c-6.53-15.88-5.68-31.89-4.58-47.91Z"/>
    <path class="cls-18" d="M863.36,863.4c-6.71-1.75-14.28,2-24.2-5.82,18.77-2.6,33.89-2.77,52.28.3-8.14,6.94-14.69,4.53-20.71,4.79C868,860.39,865.81,863.06,863.36,863.4Z"/>
    <path class="cls-19" d="M1205.79,929c-5.85-36.88-.45-48.11,23.89-47.82C1204.15,888.86,1207.09,909.71,1205.79,929Z"/>
    <path class="cls-3" d="M863.36,863.4c2.1-3.86,4.54-4.3,7.37-.73-5.82,21.9,1.47,44.78-7.37,66.69Z"/>
    <path class="cls-3" d="M1584.14,882.52a118.11,118.11,0,0,1,0,47A120,120,0,0,1,1584.14,882.52Z"/>
    <path class="cls-1" d="M1449.21,396.73c0-16.84.48-33.7-.2-50.51-.38-9.33,2.87-13.33,12.09-13.13,18.6.42,37.21-1.21,55.79,1.69,34.33,5.35,59.85,30.54,61.14,61,1.18,28-22.08,54.17-55.17,62.52-21.39,5.4-43.13.53-64.63,2.78-8.74.91-9.09-5.57-9-12C1449.27,431.61,1449.21,414.17,1449.21,396.73Z"/>
    <path class="cls-1" d="M941,639.5c-12.58,0-25.18-.37-37.75.11-9.53.37-15.49-.45-15.33-13,.15-11.45,3.88-14.13,14.56-13.85q38.63,1,77.3,0c10.69-.26,14.65,2.51,14.43,14-.21,10.61-3.89,13.37-13.66,12.89C967.41,639,954.2,639.5,941,639.5Z"/>
    <path class="cls-20" d="M1169.65,925c-13.74-1.36-21-7.62-20.74-20.83.28-12.09,6.63-19,18.77-19.26,12.87-.3,20.48,6.85,20.87,19.37C1188.94,917.09,1180.76,923.34,1169.65,925Z"/>
    <path class="cls-21" d="M1469,892.56c0,4.78.56,9.64-.12,14.31-1.55,10.79-7.8,17-19,17.86-11.63.91-18.85-5.91-21-15.61a78.24,78.24,0,0,1-.26-30.23c2-10.75,9.86-18.44,21.67-17.41,11.46,1,17.92,8.67,18.91,20.33.3,3.56,0,7.17,0,10.75Z"/>
    <path class="cls-22" d="M1108.83,925c-12.85-.31-20.29-8.33-20.28-20s7.22-20.17,20.35-20.19,20.06,8.09,20.29,20.11C1129.42,917.31,1122,924.5,1108.83,925Z"/>
    <path class="cls-23" d="M1048.54,905.5c-1.66,12.57-8.38,19.76-21.26,19-11.75-.67-18.63-7.71-18.66-19.47,0-12.74,7.28-20.11,20-20C1041.54,885.09,1047.41,893.24,1048.54,905.5Z"/>
    <path class="cls-22" d="M964.29,924.57c-9.77-1.39-17.51-9-16.4-21.12,1.05-11.6,8.59-19.55,21.91-18.68s19.89,9.66,19,21.18S980.46,925.61,964.29,924.57Z"/>
    <path class="cls-22" d="M1255.2,924.78c-11.57-.92-18.94-8.61-18.59-20.78.32-11.1,7.15-18.9,19.58-19.2,13.43-.33,20.67,7.74,20.82,19.77S1270,924.72,1255.2,924.78Z"/>
    <path class="cls-24" d="M1681.54,884.62c14.51.26,21.94,7.79,22,20.06s-7.22,20.18-20.54,20.05c-12.45-.12-19.19-8.23-19.82-19.12C1662.45,893.33,1670,885.81,1681.54,884.62Z"/>
    <path class="cls-22" d="M907.14,884.55c15.52.62,22.94,8.17,22.8,20.44s-7.45,20.2-20.82,19.74c-12.18-.43-19.23-7.87-19.61-19.28C889.09,892.88,897.23,886.24,907.14,884.55Z"/>
    <polygon fill-opacity=".04" points="0 1379.64032 502.56256 996.40704 1926.3872 1443.5136 0 1443.5136"/>
    <polygon fill-opacity=".03" points="502.03648 996.40704 362.61632 0 0 0 0 853.12512"/>
    <polygon fill-opacity=".04" points="1280 0 2560 1292.7744 2560 563.1232 2239.76576 0"/>
</svg>
