<svg xmlns="http://www.w3.org/2000/svg" width="2560" height="1440" viewBox="0 0 2560 1440">
    <defs><style>.cls-1{fill:#95bc11;}.cls-2{fill:#009ba7;}.cls-3{fill:#fefefe;}.cls-4{fill:#000002;}.cls-5{fill:#fafdfd;}.cls-6{fill:#e5f5f6;}.cls-7{fill:#e6f6f7;}.cls-8{fill:#f0f9fa;}.cls-9{fill:#e4f5f6;}.cls-10{fill:#eef9f9;}.cls-11{fill:#ecf8f9;}.cls-12{fill:#ebf8f8;}.cls-13{fill:#e9f7f7;}.cls-14{fill:#ceeef0;}.cls-15{fill:#dcf2f4;}.cls-16{fill:#e7f6f7;}.cls-17{fill:#edf8f9;}.cls-18{fill:#b9e6e9;}.cls-19{fill:#eef8f9;}.cls-20{fill:#019da8;}.cls-21{fill:#009ca8;}.cls-22{fill:#029da9;}.cls-23{fill:#019ca8;}.cls-24{fill:#019da9;}.cls-25{fill:#fff;}.cls-26{fill:none;}</style></defs><path class="cls-1" d="M2144.19,1046c34.63,9.7,67.9,17.66,91.43,43.29,15.67,17.07,10.83,41-11,59.39-3.06-23-9.36-44.41-28.61-60.49,8.86,17,15.52,34.38,14,53.77-1.18,15-3.83,17.21-19.21,13.07-21.06-5.68-30.5-17.19-31.46-39-.37-8.32-.07-16.66-.08-25C2159.2,1066.87,2159.2,1066.87,2144.19,1046Z" transform="translate(-0.14 0.14)"/><path class="cls-1" d="M2304,1106.55a60.4,60.4,0,0,0-21.4,29.53,145.28,145.28,0,0,1-7.47,16.63,21.41,21.41,0,0,1-10.76,10.37c-8.85,3.81-19.25,5.7-26.16-.67-5.56-5.11,0-13.74,4.19-18.35,8.26-9.14,9.44-19.21,9-30.11-.2-5.35,2.53-7.47,8-7.44C2274.32,1106.61,2289.16,1106.55,2304,1106.55Z" transform="translate(-0.14 0.14)"/><path class="cls-2" d="M149.89,50C205.61,49.73,251.37,96.09,250,152.57c-1.3,52.66-44.57,97.89-100.91,97.43-55.76-.46-100.15-46.58-99-102.09C51.1,94.05,95.35,49.91,149.89,50Z" transform="translate(-0.14 0.14)"/><path class="cls-3" d="M56.37,150.2a93.63,93.63,0,1,1,187.26-.3c0,53-42.8,92.78-91.68,93.74C99.45,244.67,56.41,202.16,56.37,150.2Z" transform="translate(-0.14 0.14)"/><path class="cls-2" d="M236.73,150.08a86.78,86.78,0,1,1-86.26-86.94C200.63,63.42,237.31,104.72,236.73,150.08Z" transform="translate(-0.14 0.14)"/><path class="cls-4" d="M164.67,121.14c0-4.25,0-8.51,0-12.76,0-3.66,1.62-5.24,5.3-5.26,4.51,0,9,0,13.53,0a18,18,0,0,1,17.59,18.32A17.69,17.69,0,0,1,183.35,139c-4.5,0-9,0-13.52.05-3.25,0-5.1-1.63-5.14-4.9C164.64,129.82,164.67,125.48,164.67,121.14Z" transform="translate(-0.14 0.14)"/><path class="cls-4" d="M135.07,119.39c0,4.75,0,9.49,0,14.23,0,3.68-1.64,5.51-4.84,5.49-2.81,0-4.33-1.9-4.34-5.4,0-8.41,0-16.83,0-25.24,0-2.26.54-4.09,2.71-5a5,5,0,0,1,5.8,1.36q7.78,7.71,15.6,15.39c.9.88,1.86,1.71,2.78,2.55.88-.57.49-1.31.5-1.91,0-4.5-.05-9,.07-13.51.07-2.67,1.8-4.18,4.44-4.24s4.45,1.46,4.48,4.14c.09,9.26.05,18.52,0,27.79a3.76,3.76,0,0,1-2.64,3.7,4.71,4.71,0,0,1-5.18-1c-5.64-5.54-11.31-11-16.93-16.59a18.43,18.43,0,0,1-1.69-2.21Z" transform="translate(-0.14 0.14)"/><path class="cls-5" d="M134.05,173.83c-3.57,0-7.14.06-10.71,0-3.16-.07-4.24-1.18-4.26-4.38q-.06-10.32,0-20.66c0-3.5,1.24-4.64,4.84-4.65q10.2,0,20.4,0c3,0,4.49,1.25,4.54,3.61.06,2.59-1.4,3.86-4.51,3.87-5.36,0-10.71,0-16.07,0-1.37,0-2,.3-1.93,1.82s.42,1.92,1.89,1.89q6.38-.12,12.75,0c3.11.05,4.93,2.45,4,5a3.51,3.51,0,0,1-3.33,2.29,87.74,87.74,0,0,1-13,0c-1.25-.06-2.34,0-2.29,1.83,0,1.5.42,2.11,2,2.08,5.35-.08,10.71,0,16.06,0,3.1,0,4.36,1.05,4.41,3.61s-1.28,3.67-4.36,3.71C141,173.87,137.53,173.84,134.05,173.83Z" transform="translate(-0.14 0.14)"/><path class="cls-5" d="M110.23,162.58c1.72,1.64,3.29,3.06,4.79,4.57,2,2,2.17,3.71.72,5.35s-3.93,1.79-5.91,0c-3-2.66-6-5.28-8.73-8.21-1.7-1.85-3.63-1.45-5.6-1.5-1.07,0-.82.88-.83,1.51,0,1.78.06,3.57,0,5.35-.15,2.62-1.63,4.1-3.91,4.08s-3.62-1.4-3.63-4.21q0-10.59,0-21.19c0-2.71,1.31-4.16,4-4.21,5.69-.09,11.4-.17,17.09,0a9.27,9.27,0,0,1,3.58,17.67C111.33,162.08,110.87,162.28,110.23,162.58Z" transform="translate(-0.14 0.14)"/><path class="cls-5" d="M158.55,157.73c0,3.82,0,7.65,0,11.48,0,2.95-1.47,4.63-3.91,4.61s-3.64-1.57-3.65-4.51c0-6.8,0-13.61,0-20.41,0-1.9.28-3.54,2.27-4.39s3.55.08,5,1.47q6.36,6.26,12.77,12.46c.66.64,1.34,1.24,2.47,2.29,0-4.29,0-8.06,0-11.82,0-1.5.14-3,1.44-3.89a3.65,3.65,0,0,1,3.82-.55,3.51,3.51,0,0,1,2.29,3.36c.06,7.48,0,15,0,22.45a3.38,3.38,0,0,1-2.4,3.27,4.2,4.2,0,0,1-4.63-1.27c-3.75-3.7-7.51-7.39-11.23-11.13-1.24-1.24-2.37-2.6-3.54-3.9Z" transform="translate(-0.14 0.14)"/><path class="cls-4" d="M105.09,117.46c-3.12,6.14-6.21,12.26-9.32,18.38-1.54,3-3.9,4.07-6.33,2.83s-3-3.62-1.53-6.57q6.59-13.2,13.3-26.35c1.85-3.61,6.17-3.78,8.05-.17,4.75,9.09,9.31,18.29,13.84,27.5a4,4,0,0,1-2,5.56c-2.34,1.12-4.65.39-6-2.17-2.91-5.56-5.69-11.19-8.53-16.78A5,5,0,0,0,105.09,117.46Z" transform="translate(-0.14 0.14)"/><path class="cls-5" d="M198,144.13c3.49,0,7,0,10.46,0,2.77,0,4.39,1.5,4.33,3.87s-1.56,3.52-4.29,3.61c-2.2.08-5.05-.93-6.41.42s-.44,4.37-.49,6.64c-.09,3.65,0,7.31,0,11,0,2.69-1.42,4.19-3.73,4.16s-3.58-1.49-3.59-4.24c0-5.28-.06-10.55,0-15.82,0-1.65-.41-2.3-2.12-2.17a45.66,45.66,0,0,1-5.1,0c-2.53-.07-4-1.39-4-3.58s1.36-3.8,4-3.87C190.72,144.06,194.38,144.13,198,144.13Z" transform="translate(-0.14 0.14)"/><path class="cls-4" d="M212.84,121.06c0,4.33,0,8.67,0,13,0,3.31-1.48,4.88-4.46,4.94s-4.84-1.56-4.87-4.88q-.1-13.12,0-26.25a4.41,4.41,0,0,1,4.81-4.75c2.88,0,4.5,1.76,4.52,4.94C212.87,112.39,212.84,116.73,212.84,121.06Z" transform="translate(-0.14 0.14)"/><path class="cls-1" d="M150.42,226.6c-.58-5.36-2-10-6.4-14.3,2.13,4.36,3.65,8.11,3.37,12.36-.25,3.78-.84,4.29-4.48,3.16-4.1-1.27-6.06-4-6.2-8.81q-.09-2.94,0-5.86c.11-3.39-.27-6.61-2.86-9.29,7.22,1.85,14.48,3.63,19.31,9.88C156,217.45,154.89,222.25,150.42,226.6Z" transform="translate(-0.14 0.14)"/><path class="cls-1" d="M167.16,217.05a13.66,13.66,0,0,0-4.52,6.64,22.15,22.15,0,0,1-1.85,4.16,5.73,5.73,0,0,1-6.69,2.28c-1-.36-1.39-.91-1.06-1.91a6.92,6.92,0,0,1,.81-2.12,10.63,10.63,0,0,0,2.27-7.67c-.08-1.14.73-1.39,1.69-1.38Z" transform="translate(-0.14 0.14)"/><path class="cls-6" d="M138,194.44c-.24.39.77,1.88-.6,1.85-2.48,0-5.74,1.38-6.78-2.49a3.77,3.77,0,0,1,6.89-2.87A4.63,4.63,0,0,1,138,194.44Z" transform="translate(-0.14 0.14)"/><path class="cls-7" d="M177.47,191.38c-.07,1.28.32,2.82-1,4.07a3.63,3.63,0,0,1-5.22.18c-1.67-1.52-1.73-7.21-.07-8.76a3.66,3.66,0,0,1,4-.77,3.26,3.26,0,0,1,2.28,3C177.49,189.81,177.47,190.49,177.47,191.38Z" transform="translate(-0.14 0.14)"/><path class="cls-8" d="M123,195.76c-.43,1.47.23,2.88-.75,4.69,0-3.23-.19-5.91.06-8.56.18-1.92,2.36-3.14,4.19-2.76a3.88,3.88,0,0,1,2.95,4.63,3.67,3.67,0,0,1-4.19,2.85A14.31,14.31,0,0,1,123,195.76Z" transform="translate(-0.14 0.14)"/><path class="cls-9" d="M114.42,189a3.85,3.85,0,0,1,3.81,3.92,4,4,0,0,1-3.79,3.7,3.81,3.81,0,0,1,0-7.62Z" transform="translate(-0.14 0.14)"/><path class="cls-10" d="M109,190c0-.87,0-1.54,0-2.2s-.21-1.19.56-2c0,2.59.06,4.91,0,7.22a3.6,3.6,0,0,1-4,3.53A3.79,3.79,0,1,1,107,189.2C107.63,189.39,108.21,189.7,109,190Z" transform="translate(-0.14 0.14)"/><path class="cls-11" d="M150.41,193.79c0,2.16,0,2-.83,2.19-1.91.34-3.85,1.34-5.58-.46a3.91,3.91,0,0,1,2.75-6.47C149.06,189.09,150.4,190.83,150.41,193.79Z" transform="translate(-0.14 0.14)"/><path class="cls-12" d="M210.65,193.85c0,2.07,0,1.9-.88,2.1-1.93.46-3.85,1.31-5.57-.48a3.58,3.58,0,0,1-.93-2.56,3.64,3.64,0,0,1,3.78-3.86C209.37,189.11,210.64,190.81,210.65,193.85Z" transform="translate(-0.14 0.14)"/><path class="cls-13" d="M101.4,193.24a3.85,3.85,0,0,1-4,3.4,3.81,3.81,0,0,1,.53-7.59A3.84,3.84,0,0,1,101.4,193.24Z" transform="translate(-0.14 0.14)"/><path class="cls-14" d="M182.27,192.52c-3.62-.68-2.61,2-2.81,3.83-1.11-.21-.8-1-.81-1.59,0-2.37-.06-4.75,0-7.12,0-1,.42-2.06,1.66-2.23s1.8.58,2.27,1.78c-1.1.23-2.47-2-3,.28a10.36,10.36,0,0,0,0,3.29C179.74,192.4,181.68,190.83,182.27,192.52Z" transform="translate(-0.14 0.14)"/><path class="cls-15" d="M161.16,189.5a38.68,38.68,0,0,0,0,4c.12,1.14.64,2.18,2.08,2.08s1.86-.92,1.9-2.22-.25-2.69.21-4c1.11,1.6,1.13,5.09,0,6.28a2.63,2.63,0,0,1-3.65.52C160.25,195.18,159.81,192.36,161.16,189.5Z" transform="translate(-0.14 0.14)"/><path class="cls-16" d="M159.14,189.48c-.62.77-1.25.49-1.8.53-.83.05-1.85-.17-2,1s.86,1.24,1.73,1.31c.68.06,1.42.14,1.77.8a2.06,2.06,0,0,1-.72,3.06c-.9.54-1.82.49-3.66-.26a4.17,4.17,0,0,1,2.48-.35c.78,0,1.37-.3,1.45-1.07a1.2,1.2,0,0,0-1.21-1.36c-1.75,0-3.13-.37-2.72-2.56C154.77,189.15,156.41,188.75,159.14,189.48Z" transform="translate(-0.14 0.14)"/><path class="cls-6" d="M191.18,195.52a2.73,2.73,0,0,1-4.22.09,4.09,4.09,0,0,1-.29-5.32c1.21-1.44,2.89-1.57,4.81-.12-1.28,0-2.35-.5-3.25.12a2.88,2.88,0,0,0-1.57,2.71C186.82,194.9,188.41,195.79,191.18,195.52Z" transform="translate(-0.14 0.14)"/><path class="cls-17" d="M201.86,196.34c-1-2.2.75-6.17-3.39-6.22-4.3-.05-2.27,4.07-3.48,6.18,0-2.28-1.18-4.79,1.37-6.57a3.35,3.35,0,0,1,4.25.08C202.88,191.6,202,194,201.86,196.34Z" transform="translate(-0.14 0.14)"/><path class="cls-3" d="M184.34,196.35a10.05,10.05,0,0,1,0-6.78Z" transform="translate(-0.14 0.14)"/><path class="cls-18" d="M91.12,187c-1-.24-2,.28-3.42-.82a23.18,23.18,0,0,1,7.39,0c-1.15,1-2.08.65-2.93.68C91.78,186.57,91.47,187,91.12,187Z" transform="translate(-0.14 0.14)"/><path class="cls-19" d="M143.24,189.58c-4.14,1-3.43,4.1-3.69,7.19C138.52,192.53,139.16,188.9,143.24,189.58Z" transform="translate(-0.14 0.14)"/><path class="cls-5" d="M91.12,187c.3-.54.64-.6,1-.1-.82,3.1.21,6.33-1,9.42Z" transform="translate(-0.14 0.14)"/><path class="cls-5" d="M193.1,196.23a11.65,11.65,0,0,1,0-6.62Z" transform="translate(-0.14 0.14)"/><path class="cls-2" d="M173.86,121c0-2.3.07-4.59,0-6.88-.06-1.39.36-2.06,1.82-2a62.73,62.73,0,0,1,7.87.26c4.7.76,8.24,4.24,8.51,8.47.24,3.77-2.75,7.48-7.14,8.83-3.24,1-6.59.25-9.88.52-1.26.11-1.15-.95-1.16-1.8Z" transform="translate(-0.14 0.14)"/><path class="cls-2" d="M102.35,151.61c1.69,0,3.39,0,5.08,0,1.32,0,2.2,0,2.18,1.82,0,1.62-.55,2-2,2-3.64-.09-7.28-.1-10.92,0-1.52,0-2-.36-2-2,0-1.78.83-1.88,2.17-1.83C98.62,151.66,100.49,151.61,102.35,151.61Z" transform="translate(-0.14 0.14)"/><path class="cls-20" d="M134.39,195.69c-1.84-.12-2.92-.94-2.94-2.82A2.48,2.48,0,0,1,134,190a2.62,2.62,0,0,1,3.06,2.63C137.16,194.45,136.09,195.43,134.39,195.69Z" transform="translate(-0.14 0.14)"/><path class="cls-21" d="M176.69,191.11a14.92,14.92,0,0,1,0,1.77,2.72,2.72,0,0,1-3,2.77c-1.76,0-2.55-1.16-2.83-2.68a13.57,13.57,0,0,1,0-2.78c0-1.94.92-3.4,2.92-3.45s2.93,1.38,3,3.36v1Z" transform="translate(-0.14 0.14)"/><path class="cls-22" d="M125.7,195.69a2.84,2.84,0,1,1,.18-5.67,2.64,2.64,0,0,1,2.78,2.92C128.65,194.69,127.57,195.68,125.7,195.69Z" transform="translate(-0.14 0.14)"/><path class="cls-23" d="M114.5,190a2.75,2.75,0,0,1,2.72,3,2.52,2.52,0,0,1-2.68,2.71,2.57,2.57,0,0,1-2.9-2.75C111.58,191.07,112.71,190.19,114.5,190Z" transform="translate(-0.14 0.14)"/><path class="cls-22" d="M106.1,190a2.83,2.83,0,1,1-3,2.75A2.73,2.73,0,0,1,106.1,190Z" transform="translate(-0.14 0.14)"/><path class="cls-22" d="M146.6,190c2,.09,3,1.18,2.93,2.91a2.59,2.59,0,0,1-3,2.75,2.64,2.64,0,0,1-2.73-2.76A2.7,2.7,0,0,1,146.6,190Z" transform="translate(-0.14 0.14)"/><path class="cls-24" d="M206.66,195.68a2.73,2.73,0,0,1-2.58-3,2.85,2.85,0,0,1,5.7.25C209.75,194.64,208.67,195.67,206.66,195.68Z" transform="translate(-0.14 0.14)"/><path class="cls-22" d="M97.51,195.69a2.7,2.7,0,0,1-2.7-2.92,2.86,2.86,0,0,1,5.72,0C100.56,194.51,99.55,195.63,97.51,195.69Z" transform="translate(-0.14 0.14)"/><path class="cls-25" d="M1984.64,985v-3.36H2007V985h-9.5v30.24h-3.36V985Z" transform="translate(-0.14 0.14)"/><path class="cls-25" d="M2023.09,990a13.21,13.21,0,1,1-13.2,13.21A13.2,13.2,0,0,1,2023.09,990Zm0,23a9.85,9.85,0,1,0-9.84-9.84A9.85,9.85,0,0,0,2023.09,1013Z" transform="translate(-0.14 0.14)"/><path class="cls-25" d="M2068.45,1003.17a13.2,13.2,0,1,1-13.2-13.21,12,12,0,0,1,5.62,1.49,10.2,10.2,0,0,1,4.22,3.6V981.61h3.36Zm-13.2-9.85a9.85,9.85,0,1,0,9.84,9.85A9.86,9.86,0,0,0,2055.25,993.32Z" transform="translate(-0.14 0.14)"/><path class="cls-25" d="M2087.89,990a13.21,13.21,0,1,1-13.2,13.21A13.2,13.2,0,0,1,2087.89,990Zm0,23a9.85,9.85,0,1,0-9.84-9.84A9.85,9.85,0,0,0,2087.89,1013Z" transform="translate(-0.14 0.14)"/><path class="cls-25" d="M2123.17,1003.21a13.2,13.2,0,1,1,13.2,13.2,12.54,12.54,0,0,1-5.62-1.44,10.57,10.57,0,0,1-4.22-3.64v13.44h-3.36Zm13.2,9.84a9.84,9.84,0,1,0-9.84-9.84A9.85,9.85,0,0,0,2136.37,1013.05Z" transform="translate(-0.14 0.14)"/><path class="cls-25" d="M2167.57,990a13.2,13.2,0,0,1,13.2,13.21v12h-3.36V1012l-.53.53a13.2,13.2,0,1,1-9.31-22.57Zm0,23a9.85,9.85,0,1,0-9.84-9.84A9.85,9.85,0,0,0,2167.57,1013Z" transform="translate(-0.14 0.14)"/><path class="cls-25" d="M2202.56,993.66c-6.38,0-9.79,6.77-9.79,10.51v11h-3.36v-24h3.36v4.61A12.63,12.63,0,0,1,2203,990Z" transform="translate(-0.14 0.14)"/><path class="cls-25" d="M2219.6,990a13.2,13.2,0,0,1,13.2,13.21v12h-3.36V1012l-.52.53A13.21,13.21,0,1,1,2219.6,990Zm0,23a9.85,9.85,0,1,0-9.84-9.84A9.85,9.85,0,0,0,2219.6,1013Z" transform="translate(-0.14 0.14)"/><path class="cls-25" d="M2264.19,1004.12c-3.89-1-7.63-2.68-7.63-7.2,0-3.74,3.89-7,8.21-7,5,0,7.63,4,7.87,6H2269a4.26,4.26,0,0,0-4.27-2.88c-2,0-4.85,1.34-4.85,3.74,0,2.78,3.74,3.65,5.76,4.32,4.37,1.44,7.63,3.22,7.63,8.11,0,4.52-4,7.16-8.54,7.16s-8.88-3.08-8.88-8.21v-.24h3.41v.19c0,2.21,1.58,4.94,5.71,4.94,3.12,0,4.8-1.92,4.8-3.84C2269.81,1005.9,2268,1005.13,2264.19,1004.12Z" transform="translate(-0.14 0.14)"/><path class="cls-25" d="M2298.71,991.21h3.36v14.36a10.78,10.78,0,1,1-21.56,0V991.21H2284v14.36a7.37,7.37,0,0,0,14.74,0Z" transform="translate(-0.14 0.14)"/><path class="cls-25" d="M2342.34,980.46a18,18,0,1,1-18,17.95A18,18,0,0,1,2342.34,980.46Zm0,32.55a14.57,14.57,0,1,0-14.6-14.6A14.7,14.7,0,0,0,2342.34,1013Z" transform="translate(-0.14 0.14)"/><path class="cls-25" d="M2379.49,998.32h-6.15v16.89H2370V998.32h-2.49V995H2370v-8.07a6.44,6.44,0,0,1,12.87,0h-3.36a3.08,3.08,0,0,0-6.15,0V995h9.51v20.25h-3.36Z" transform="translate(-0.14 0.14)"/><path class="cls-25" d="M2403.25,1013a9.87,9.87,0,0,0,7-2.89,9.45,9.45,0,0,0,1.63-2.2h3.7l-.15.38a13.21,13.21,0,1,1,0-10.27l.15.33h-3.75a9.24,9.24,0,0,0-1.58-2.16,9.84,9.84,0,1,0-7,16.81Z" transform="translate(-0.14 0.14)"/><path class="cls-25" d="M2424.46,983a2,2,0,1,1-2,2A2,2,0,0,1,2424.46,983Zm-1.73,8.25h3.36v24h-3.36Z" transform="translate(-0.14 0.14)"/><path class="cls-25" d="M2453.79,1000.81a7.38,7.38,0,0,0-7.34-7.39,7.69,7.69,0,0,0-7.4,7.39v14.4h-3.36v-24h3.36v2.21c1.3-2.11,4.47-3.46,7.4-3.46a10.89,10.89,0,0,1,10.8,10.85v14.4h-3.46Z" transform="translate(-0.14 0.14)"/><path class="cls-25" d="M2476.69,990a13.2,13.2,0,0,1,13.2,13.21v12h-3.36V1012l-.53.53a13.2,13.2,0,1,1-9.31-22.57Zm0,23a9.85,9.85,0,1,0-9.84-9.84A9.86,9.86,0,0,0,2476.69,1013Z" transform="translate(-0.14 0.14)"/><path class="cls-26" d="M49.43,151l-49.29.46" transform="translate(-0.14 0.14)"/><path class="cls-26" d="M148.37,49.57q0-24.85-.52-49.71" transform="translate(-0.14 0.14)"/><path class="cls-25" d="M286.5,47.73h1.62L292,60l3.86-12.28h1.62l-4.7,14.7H291.2Z" transform="translate(-0.14 0.14)"/><path class="cls-25" d="M304.29,51.38a5.77,5.77,0,0,1,5.77,5.78v5.27h-1.47V61l-.23.23a5.78,5.78,0,1,1-4.07-9.87Zm0,10.08a4.31,4.31,0,1,0-4.31-4.3A4.31,4.31,0,0,0,304.29,61.46Z" transform="translate(-0.14 0.14)"/><path class="cls-25" d="M313.84,47.73h1.47v14.7h-1.47Z" transform="translate(-0.14 0.14)"/><path class="cls-25" d="M324.24,51.38a5.78,5.78,0,1,1-5.78,5.78A5.77,5.77,0,0,1,324.24,51.38Zm0,10.08a4.31,4.31,0,1,0-4.31-4.3A4.31,4.31,0,0,0,324.24,61.46Z" transform="translate(-0.14 0.14)"/><path class="cls-25" d="M339.23,53c-2.79,0-4.28,3-4.28,4.6v4.83h-1.47V51.93H335v2a5.49,5.49,0,0,1,4.49-2.57Z" transform="translate(-0.14 0.14)"/><path class="cls-25" d="M346.68,61.46a4.32,4.32,0,0,0,3.05-1.26,4.27,4.27,0,0,0,.71-1h1.62l-.06.17a5.78,5.78,0,1,1,0-4.5,5.34,5.34,0,0,1,.44,1.81h-10a3.17,3.17,0,0,0,0,.44A4.31,4.31,0,0,0,346.68,61.46Zm4-5.92a4.3,4.3,0,0,0-8,0Z" transform="translate(-0.14 0.14)"/><path class="cls-25" d="M358.72,57.58c-1.7-.44-3.34-1.18-3.34-3.15,0-1.64,1.7-3,3.59-3A3.45,3.45,0,0,1,362.41,54h-1.57A1.87,1.87,0,0,0,359,52.73c-.86,0-2.12.59-2.12,1.64,0,1.21,1.64,1.59,2.52,1.89,1.91.63,3.34,1.4,3.34,3.54,0,2-1.77,3.13-3.74,3.13a3.69,3.69,0,0,1-3.88-3.59v-.1h1.49v.08a2.22,2.22,0,0,0,2.49,2.16c1.37,0,2.1-.84,2.1-1.68C361.17,58.36,360.4,58,358.72,57.58Z" transform="translate(-0.14 0.14)"/><path class="cls-25" d="M366.68,51.93a1.17,1.17,0,0,1,1.15,1.16,1.15,1.15,0,0,1-2.29,0A1.16,1.16,0,0,1,366.68,51.93Zm0,8.71a1.17,1.17,0,0,1,1.15,1.16,1.15,1.15,0,0,1-2.29,0A1.16,1.16,0,0,1,366.68,60.64Z" transform="translate(-0.14 0.14)"/><path class="cls-25" d="M292.29,80.24c-2-.65-4-1.7-4-3.68,0-2.24,2.34-4.13,4.9-4.13a4.81,4.81,0,0,1,4.7,3.55h-1.62a3.3,3.3,0,0,0-3.17-2.08c-1.57,0-3.27,1.11-3.27,2.54s1.55,2,3.21,2.56c2.27.73,5.25,1.62,5.25,4.87,0,2.71-2.35,4.26-5.1,4.26a5.12,5.12,0,0,1-5.32-4.89h1.47a3.65,3.65,0,0,0,3.85,3.42c1.89,0,3.63-.88,3.63-2.79C296.81,81.67,294.44,80.93,292.29,80.24Z" transform="translate(-0.14 0.14)"/><path class="cls-25" d="M306.57,86.66a4.32,4.32,0,0,0,3.05-1.26,4.27,4.27,0,0,0,.71-1H312l-.06.17a5.78,5.78,0,1,1,0-4.5,5.34,5.34,0,0,1,.44,1.81h-10a3.17,3.17,0,0,0,0,.44A4.31,4.31,0,0,0,306.57,86.66Zm4-5.92a4.3,4.3,0,0,0-8,0Z" transform="translate(-0.14 0.14)"/><path class="cls-25" d="M323.4,81.33a3.23,3.23,0,0,0-3.22-3.23A3.36,3.36,0,0,0,317,81.33v6.3h-1.47V77.13H317v1a3.92,3.92,0,0,1,3.23-1.52,4.77,4.77,0,0,1,4.73,4.75v6.3H323.4Z" transform="translate(-0.14 0.14)"/><path class="cls-25" d="M328.37,78.62V77.15h1.07V73h1.47v4.2h2.75v1.47h-2.75v9h-1.47v-9Z" transform="translate(-0.14 0.14)"/><path class="cls-25" d="M338.41,73.52a.88.88,0,1,1-.88.88A.86.86,0,0,1,338.41,73.52Zm-.76,3.61h1.47v10.5h-1.47Z" transform="translate(-0.14 0.14)"/><path class="cls-25" d="M354,82.36a5.77,5.77,0,1,1-5.77-5.78,5.17,5.17,0,0,1,2.46.66,4.45,4.45,0,0,1,1.84,1.57V72.93H354Zm-5.77-4.31a4.31,4.31,0,1,0,4.3,4.31A4.31,4.31,0,0,0,348.26,78.05Z" transform="translate(-0.14 0.14)"/><path class="cls-25" d="M362.54,76.58a5.78,5.78,0,1,1-5.77,5.78A5.77,5.77,0,0,1,362.54,76.58Zm0,10.08a4.31,4.31,0,1,0-4.31-4.3A4.31,4.31,0,0,0,362.54,86.66Z" transform="translate(-0.14 0.14)"/><path class="cls-25" d="M389.31,82.36a5.78,5.78,0,1,1-5.77-5.78,5.17,5.17,0,0,1,2.46.66,4.51,4.51,0,0,1,1.84,1.57V72.93h1.47Zm-5.77-4.31a4.31,4.31,0,1,0,4.3,4.31A4.32,4.32,0,0,0,383.54,78.05Z" transform="translate(-0.14 0.14)"/><path class="cls-25" d="M397.82,86.66a4.29,4.29,0,0,0,3-1.26,4,4,0,0,0,.72-1h1.61l-.06.17a5.78,5.78,0,1,1,0-4.5,5.34,5.34,0,0,1,.44,1.81h-10a2.12,2.12,0,0,0,0,.44A4.31,4.31,0,0,0,397.82,86.66Zm4-5.92a4.3,4.3,0,0,0-8,0Z" transform="translate(-0.14 0.14)"/><path class="cls-25" d="M421.19,77.13h1.47v6.28a4.72,4.72,0,1,1-9.43,0V77.13h1.51v6.28a3.23,3.23,0,0,0,6.45,0Z" transform="translate(-0.14 0.14)"/><path class="cls-25" d="M432.3,78.2c-2.79,0-4.28,3-4.28,4.6v4.83h-1.47V77.13H428v2a5.49,5.49,0,0,1,4.49-2.57Z" transform="translate(-0.14 0.14)"/><path class="cls-25" d="M444.06,77.13h1.47v9.41a5.78,5.78,0,0,1-9.87,4.07,6.62,6.62,0,0,1-.76-.94L436,88.59a3.9,3.9,0,0,0,.73,1,4.31,4.31,0,0,0,7.35-3v-.32l-.23.23a5.78,5.78,0,1,1-4.08-9.87,5.59,5.59,0,0,1,4.08,1.71,1,1,0,0,1,.23.23Zm-4.31,9.53a4.31,4.31,0,1,0-4.3-4.3A4.31,4.31,0,0,0,439.75,86.66Z" transform="translate(-0.14 0.14)"/><path class="cls-25" d="M454.35,86.66a4.28,4.28,0,0,0,3-1.26,4,4,0,0,0,.72-1h1.62l-.07.17a5.78,5.78,0,1,1,0-4.5,5.34,5.34,0,0,1,.44,1.81h-10a3.17,3.17,0,0,0,0,.44A4.31,4.31,0,0,0,454.35,86.66Zm4-5.92a4.3,4.3,0,0,0-8,0Z" transform="translate(-0.14 0.14)"/><path class="cls-25" d="M471.17,81.33A3.23,3.23,0,0,0,468,78.1a3.37,3.37,0,0,0-3.24,3.23v6.3h-1.47V77.13h1.47v1A3.94,3.94,0,0,1,468,76.58a4.77,4.77,0,0,1,4.72,4.75v6.3h-1.51Z" transform="translate(-0.14 0.14)"/><path class="cls-25" d="M481.19,86.66a4.29,4.29,0,0,0,3-1.26,4,4,0,0,0,.72-1h1.61l-.06.17a5.78,5.78,0,1,1,0-4.5l.06.15h-1.63a3.89,3.89,0,0,0-.7-1,4.31,4.31,0,1,0-3,7.35Z" transform="translate(-0.14 0.14)"/><path class="cls-25" d="M490.47,73.52a.88.88,0,1,1-.88.88A.86.86,0,0,1,490.47,73.52Zm-.76,3.61h1.47v10.5h-1.47Z" transform="translate(-0.14 0.14)"/><path class="cls-25" d="M500.32,76.58a5.77,5.77,0,0,1,5.77,5.78v5.27h-1.47V86.22l-.23.23a5.78,5.78,0,1,1-4.07-9.87Zm0,10.08a4.31,4.31,0,1,0-4.31-4.3A4.31,4.31,0,0,0,500.32,86.66Z" transform="translate(-0.14 0.14)"/><path class="cls-25" d="M293.41,112.83H288.6V98.13h3.95a5.46,5.46,0,0,1,3.57,1.05,3.59,3.59,0,0,1,1.26,2.92,3.69,3.69,0,0,1-1.26,2.92l-.09.06a3.45,3.45,0,0,1,1.05.59,3.69,3.69,0,0,1,1.32,3.06,3.77,3.77,0,0,1-1.32,3A5.65,5.65,0,0,1,293.41,112.83Zm2.39-10.73a2.22,2.22,0,0,0-.84-1.87,3.75,3.75,0,0,0-2.37-.67h-2.52v5.06h3.15A2.62,2.62,0,0,0,295,104,2.23,2.23,0,0,0,295.8,102.1Zm1,6.61a2.38,2.38,0,0,0-.9-2,3.76,3.76,0,0,0-2.46-.69h-3.36v5.29h3.36a3.76,3.76,0,0,0,2.46-.69A2.44,2.44,0,0,0,296.79,108.71Z" transform="translate(-0.14 0.14)"/><path class="cls-25" d="M309.2,102.33h1.47v6.28a4.72,4.72,0,1,1-9.43,0v-6.28h1.51v6.28a3.23,3.23,0,0,0,6.45,0Z" transform="translate(-0.14 0.14)"/><path class="cls-25" d="M319.28,111.86a4.28,4.28,0,0,0,3-1.26,4,4,0,0,0,.72-1h1.61l-.06.17a5.78,5.78,0,1,1,0-4.5,5.34,5.34,0,0,1,.44,1.81H315a3.17,3.17,0,0,0,0,.44A4.31,4.31,0,0,0,319.28,111.86Zm4-5.92a4.3,4.3,0,0,0-8,0Z" transform="translate(-0.14 0.14)"/><path class="cls-25" d="M336.1,106.53a3.23,3.23,0,0,0-3.21-3.23,3.36,3.36,0,0,0-3.24,3.23v6.3h-1.47v-10.5h1.47v1a3.94,3.94,0,0,1,3.24-1.52,4.77,4.77,0,0,1,4.72,4.75v6.3H336.1Z" transform="translate(-0.14 0.14)"/><path class="cls-25" d="M346.12,101.78a5.77,5.77,0,0,1,5.77,5.78v5.27h-1.47v-1.41l-.23.23a5.78,5.78,0,1,1-4.07-9.87Zm0,10.08a4.31,4.31,0,1,0-4.31-4.3A4.31,4.31,0,0,0,346.12,111.86Z" transform="translate(-0.14 0.14)"/><path class="cls-25" d="M367.33,101.78a5.77,5.77,0,0,1,5.77,5.78v5.27h-1.47v-1.41l-.23.23a5.78,5.78,0,1,1-4.07-9.87Zm0,10.08a4.31,4.31,0,1,0-4.31-4.3A4.31,4.31,0,0,0,367.33,111.86Z" transform="translate(-0.14 0.14)"/><path class="cls-25" d="M381.61,111.86a4.29,4.29,0,0,0,3.76-2.22H387l-.06.17a5.78,5.78,0,1,1,0-4.5l.06.15h-1.64a3.86,3.86,0,0,0-.69-.95,4.31,4.31,0,0,0-7.35,3A4.31,4.31,0,0,0,381.61,111.86Z" transform="translate(-0.14 0.14)"/><path class="cls-25" d="M389.71,103.82v-1.47h1.07v-4.2h1.47v4.2H395v1.47h-2.75v9h-1.47v-9Z" transform="translate(-0.14 0.14)"/><path class="cls-25" d="M399.75,98.72a.88.88,0,1,1-.88.88A.86.86,0,0,1,399.75,98.72Zm-.75,3.61h1.47v10.5H399Z" transform="translate(-0.14 0.14)"/><path class="cls-25" d="M404.46,103.82v-1.47h1.07v-4.2H407v4.2h2.75v1.47H407v9h-1.47v-9Z" transform="translate(-0.14 0.14)"/><path class="cls-25" d="M421.06,102.33h1.47v6.28a4.71,4.71,0,1,1-9.42,0v-6.28h1.51v6.28a3.22,3.22,0,0,0,6.44,0Z" transform="translate(-0.14 0.14)"/><path class="cls-25" d="M436.92,107.56a5.78,5.78,0,1,1-5.77-5.78,5.16,5.16,0,0,1,2.45.66,4.48,4.48,0,0,1,1.85,1.57V98.13h1.47Zm-5.77-4.31a4.31,4.31,0,1,0,4.3,4.31A4.32,4.32,0,0,0,431.15,103.25Z" transform="translate(-0.14 0.14)"/><path class="cls-25" d="M302.88,130.85c0,2.31-.4,4-1.24,5a6.41,6.41,0,0,1-2.77,2.12,9.75,9.75,0,0,1-3.15.54,7.85,7.85,0,1,1,0-15.7,7.8,7.8,0,0,1,5.54,2.31,7,7,0,0,1,1.36,1.84h-1.76a4.87,4.87,0,0,0-.67-.77,6.23,6.23,0,0,0-4.47-1.89,6.37,6.37,0,1,0,0,12.74,5.38,5.38,0,0,0,4.62-2,4.47,4.47,0,0,0,.84-2.75h-4.92v-1.47Z" transform="translate(-0.14 0.14)"/><path class="cls-25" d="M311.07,137.06a4.29,4.29,0,0,0,3-1.26,4,4,0,0,0,.72-1h1.61l-.06.17a5.78,5.78,0,1,1,0-4.5,5.34,5.34,0,0,1,.44,1.81h-10a2.12,2.12,0,0,0,0,.44A4.31,4.31,0,0,0,311.07,137.06Zm4-5.92a4.3,4.3,0,0,0-8,0Z" transform="translate(-0.14 0.14)"/><path class="cls-25" d="M327.89,131.73a3.23,3.23,0,0,0-3.21-3.23,3.36,3.36,0,0,0-3.24,3.23V138H320v-10.5h1.47v1a3.94,3.94,0,0,1,3.24-1.52,4.77,4.77,0,0,1,4.72,4.75V138h-1.51Z" transform="translate(-0.14 0.14)"/><path class="cls-25" d="M338,137.06a4.32,4.32,0,0,0,3.05-1.26,4.27,4.27,0,0,0,.71-1h1.62l-.07.17a5.78,5.78,0,1,1,0-4.5,5.12,5.12,0,0,1,.44,1.81h-10a3.17,3.17,0,0,0,0,.44A4.31,4.31,0,0,0,338,137.06Zm4-5.92a4.3,4.3,0,0,0-8,0Z" transform="translate(-0.14 0.14)"/><path class="cls-25" d="M352.77,128.6c-2.79,0-4.28,3-4.28,4.6V138H347v-10.5h1.47v2A5.51,5.51,0,0,1,353,127Z" transform="translate(-0.14 0.14)"/><path class="cls-25" d="M360.23,127a5.77,5.77,0,0,1,5.77,5.78V138h-1.47v-1.41l-.23.23a5.77,5.77,0,1,1-4.07-9.87Zm0,10.08a4.31,4.31,0,1,0-4.3-4.3A4.31,4.31,0,0,0,360.23,137.06Z" transform="translate(-0.14 0.14)"/><path class="cls-25" d="M375.54,128.6c-2.79,0-4.29,3-4.29,4.6V138h-1.46v-10.5h1.46v2a5.53,5.53,0,0,1,4.5-2.57Z" transform="translate(-0.14 0.14)"/><path class="cls-25" d="M389.92,137.06A4.32,4.32,0,0,0,393,135.8a4.27,4.27,0,0,0,.71-1h1.62l-.07.17a5.78,5.78,0,1,1,0-4.5l.07.15h-1.64a4.13,4.13,0,0,0-.69-.95,4.36,4.36,0,0,0-3.05-1.26,4.31,4.31,0,0,0,0,8.61Z" transform="translate(-0.14 0.14)"/><path class="cls-25" d="M403.17,127a5.78,5.78,0,1,1-5.77,5.78A5.78,5.78,0,0,1,403.17,127Zm0,10.08a4.31,4.31,0,1,0-4.3-4.3A4.31,4.31,0,0,0,403.17,137.06Z" transform="translate(-0.14 0.14)"/><path class="cls-25" d="M420,131.73a3.23,3.23,0,0,0-3.22-3.23,3.36,3.36,0,0,0-3.23,3.23V138H412.1v-10.5h1.47v1A3.92,3.92,0,0,1,416.8,127a4.77,4.77,0,0,1,4.73,4.75V138H420Z" transform="translate(-0.14 0.14)"/><path class="cls-25" d="M430.24,130.64h-2.68V138h-1.47v-7.39H425v-1.47h1.1v-3.53a2.81,2.81,0,1,1,5.62,0h-1.47a1.34,1.34,0,0,0-2.68,0v3.53h4.15V138h-1.47Z" transform="translate(-0.14 0.14)"/><path class="cls-25" d="M440.64,127a5.77,5.77,0,0,1,5.77,5.78V138h-1.47v-1.41l-.23.23a5.78,5.78,0,1,1-4.07-9.87Zm0,10.08a4.31,4.31,0,1,0-4.31-4.3A4.31,4.31,0,0,0,440.64,137.06Z" transform="translate(-0.14 0.14)"/><path class="cls-25" d="M457.79,131.73a3.22,3.22,0,0,0-3.21-3.23,3.36,3.36,0,0,0-3.23,3.23V138h-1.47v-10.5h1.47v1a3.92,3.92,0,0,1,3.23-1.52,4.78,4.78,0,0,1,4.73,4.75V138h-1.52Z" transform="translate(-0.14 0.14)"/><path class="cls-25" d="M464.87,136.56h6.49V138h-9.22l6.28-9H463v-1.47h8.38Z" transform="translate(-0.14 0.14)"/><path class="cls-25" d="M479.24,127a5.77,5.77,0,0,1,5.77,5.78V138h-1.47v-1.41l-.23.23a5.78,5.78,0,1,1-4.07-9.87Zm0,10.08a4.31,4.31,0,1,0-4.31-4.3A4.31,4.31,0,0,0,479.24,137.06Z" transform="translate(-0.14 0.14)"/><path class="cls-25" d="M288.6,148.53H293a5.31,5.31,0,0,1,3.5,1.05,5.1,5.1,0,0,1,0,6.87c-.19.14-.37.27-.58.4.18.1.37.23.56.35a3.86,3.86,0,0,1,1.32,3v3h-1.46v-3a2.5,2.5,0,0,0-.93-2,3.08,3.08,0,0,0-2.18-.71h-3.13v5.71H288.6Zm7.71,4.43a2.87,2.87,0,0,0-.93-2.39,3.54,3.54,0,0,0-2.39-.72h-2.92v6.28H293a3.59,3.59,0,0,0,2.39-.71A3.09,3.09,0,0,0,296.31,153Z" transform="translate(-0.14 0.14)"/><path class="cls-25" d="M306.3,162.26a4.32,4.32,0,0,0,3.05-1.26,4.27,4.27,0,0,0,.71-1h1.62l-.07.17a5.78,5.78,0,1,1,0-4.5,5.12,5.12,0,0,1,.44,1.81H302a3.17,3.17,0,0,0,0,.44A4.31,4.31,0,0,0,306.3,162.26Zm4-5.92a4.3,4.3,0,0,0-8,0Z" transform="translate(-0.14 0.14)"/><path class="cls-25" d="M314.58,158a5.77,5.77,0,1,1,5.77,5.77,5.48,5.48,0,0,1-2.46-.63,4.56,4.56,0,0,1-1.84-1.59v5.88h-1.47Zm5.77,4.3a4.3,4.3,0,1,0-4.3-4.3A4.31,4.31,0,0,0,320.35,162.28Z" transform="translate(-0.14 0.14)"/><path class="cls-25" d="M337,152.73h1.47V159a4.71,4.71,0,1,1-9.42,0v-6.28h1.51V159a3.22,3.22,0,0,0,6.44,0Z" transform="translate(-0.14 0.14)"/><path class="cls-25" d="M342,154.22v-1.47H343v-4.2h1.47v4.2h2.75v1.47H344.5v9H343v-9Z" transform="translate(-0.14 0.14)"/><path class="cls-25" d="M355.76,152.18a5.77,5.77,0,0,1,5.77,5.78v5.27h-1.47v-1.41l-.23.23a5.78,5.78,0,1,1-4.07-9.87Zm0,10.08a4.31,4.31,0,1,0-4.31-4.3A4.31,4.31,0,0,0,355.76,162.26Z" transform="translate(-0.14 0.14)"/><path class="cls-25" d="M370,162.26a4.31,4.31,0,0,0,3-1.26,4.27,4.27,0,0,0,.71-1h1.62l-.06.17a5.78,5.78,0,1,1,0-4.5l.06.15h-1.64a4.13,4.13,0,0,0-.69-1,4.31,4.31,0,0,0-7.35,3.05A4.31,4.31,0,0,0,370,162.26Z" transform="translate(-0.14 0.14)"/><path class="cls-25" d="M379.32,149.12a.88.88,0,1,1-.88.88A.86.86,0,0,1,379.32,149.12Zm-.76,3.61H380v10.5h-1.47Z" transform="translate(-0.14 0.14)"/><path class="cls-25" d="M389.06,152.18a5.78,5.78,0,1,1-5.77,5.78A5.78,5.78,0,0,1,389.06,152.18Zm0,10.08a4.31,4.31,0,1,0-4.3-4.3A4.31,4.31,0,0,0,389.06,162.26ZM390,151.2h-2l3-2.73h2Z" transform="translate(-0.14 0.14)"/><path class="cls-25" d="M405.9,156.93a3.23,3.23,0,0,0-3.21-3.23,3.36,3.36,0,0,0-3.23,3.23v6.3H398v-10.5h1.47v1a3.91,3.91,0,0,1,3.23-1.52,4.78,4.78,0,0,1,4.73,4.75v6.3H405.9Z" transform="translate(-0.14 0.14)"/><path class="cls-25" d="M288.6,173.73H293a5.31,5.31,0,0,1,3.5,1.05,5.1,5.1,0,0,1,0,6.87c-.19.14-.37.27-.58.4.18.1.37.23.56.35a3.86,3.86,0,0,1,1.32,3v3h-1.46v-3a2.5,2.5,0,0,0-.93-2,3.08,3.08,0,0,0-2.18-.71h-3.13v5.71H288.6Zm7.71,4.43a2.87,2.87,0,0,0-.93-2.39,3.59,3.59,0,0,0-2.39-.72h-2.92v6.28H293a3.59,3.59,0,0,0,2.39-.71A3.09,3.09,0,0,0,296.31,178.16Z" transform="translate(-0.14 0.14)"/><path class="cls-25" d="M306.3,187.46a4.32,4.32,0,0,0,3.05-1.26,4.27,4.27,0,0,0,.71-1h1.62l-.07.17a5.78,5.78,0,1,1,0-4.5,5.12,5.12,0,0,1,.44,1.81H302a3.17,3.17,0,0,0,0,.44A4.31,4.31,0,0,0,306.3,187.46Zm4-5.92a4.3,4.3,0,0,0-8,0Z" transform="translate(-0.14 0.14)"/><path class="cls-25" d="M320.14,187.46a4.28,4.28,0,0,0,3-1.26,4,4,0,0,0,.72-1h1.62l-.07.17a5.78,5.78,0,1,1,0-4.5l.07.15h-1.64a3.89,3.89,0,0,0-.7-.95,4.3,4.3,0,1,0-3,7.35Z" transform="translate(-0.14 0.14)"/><path class="cls-25" d="M336,177.93h1.47v6.28a4.71,4.71,0,1,1-9.42,0v-6.28h1.51v6.28a3.22,3.22,0,0,0,6.44,0Z" transform="translate(-0.14 0.14)"/><path class="cls-25" d="M347.1,179c-2.79,0-4.28,3-4.28,4.6v4.83h-1.47v-10.5h1.47v2a5.51,5.51,0,0,1,4.49-2.57Z" transform="translate(-0.14 0.14)"/><path class="cls-25" d="M352.86,183.58c-1.7-.44-3.34-1.18-3.34-3.15,0-1.64,1.7-3.05,3.59-3.05a3.45,3.45,0,0,1,3.44,2.61H355a1.87,1.87,0,0,0-1.87-1.26c-.86,0-2.12.59-2.12,1.64,0,1.21,1.64,1.59,2.52,1.89,1.91.63,3.34,1.4,3.34,3.54,0,2-1.77,3.13-3.74,3.13a3.69,3.69,0,0,1-3.88-3.59v-.1h1.49v.08a2.22,2.22,0,0,0,2.5,2.16c1.36,0,2.09-.84,2.09-1.68C355.31,184.36,354.54,184,352.86,183.58Z" transform="translate(-0.14 0.14)"/><path class="cls-25" d="M361.38,174.32a.88.88,0,1,1-.88.88A.87.87,0,0,1,361.38,174.32Zm-.75,3.61h1.47v10.5h-1.47Z" transform="translate(-0.14 0.14)"/><path class="cls-25" d="M364.62,177.93h1.62l3.75,8.65,3.78-8.65h1.62l-4.58,10.5H369.2Z" transform="translate(-0.14 0.14)"/><path class="cls-25" d="M378.88,174.32a.88.88,0,0,1,0,1.76.88.88,0,1,1,0-1.76Zm-.76,3.61h1.47v10.5h-1.47Z" transform="translate(-0.14 0.14)"/><path class="cls-25" d="M394.5,183.16a5.78,5.78,0,1,1-5.77-5.78,5.16,5.16,0,0,1,2.45.66,4.48,4.48,0,0,1,1.85,1.57v-5.88h1.47Zm-5.77-4.31a4.31,4.31,0,1,0,4.3,4.31A4.32,4.32,0,0,0,388.73,178.85Z" transform="translate(-0.14 0.14)"/><path class="cls-25" d="M402.8,177.38a5.77,5.77,0,0,1,5.77,5.78v5.27H407.1V187l-.23.23a5.78,5.78,0,1,1-4.07-9.87Zm0,10.08a4.31,4.31,0,1,0-4.31-4.3A4.31,4.31,0,0,0,402.8,187.46Z" transform="translate(-0.14 0.14)"/><path class="cls-25" d="M422.85,183.16a5.78,5.78,0,1,1-5.77-5.78,5.16,5.16,0,0,1,2.45.66,4.48,4.48,0,0,1,1.85,1.57v-5.88h1.47Zm-5.77-4.31a4.31,4.31,0,1,0,4.3,4.31A4.32,4.32,0,0,0,417.08,178.85Z" transform="translate(-0.14 0.14)"/><path class="cls-25" d="M295.72,212.66a6.29,6.29,0,0,0,4.47-1.87,6.7,6.7,0,0,0,.69-.81h1.74a7,7,0,0,1-1.36,1.84,7.8,7.8,0,0,1-5.54,2.31,7.85,7.85,0,1,1,0-15.7,7.8,7.8,0,0,1,5.54,2.31,7,7,0,0,1,1.36,1.84h-1.76a4.87,4.87,0,0,0-.67-.77,6.23,6.23,0,0,0-4.47-1.89,6.37,6.37,0,1,0,0,12.74Z" transform="translate(-0.14 0.14)"/><path class="cls-25" d="M310.61,202.58a5.78,5.78,0,1,1-5.78,5.78A5.77,5.77,0,0,1,310.61,202.58Zm0,10.08a4.31,4.31,0,1,0-4.31-4.3A4.31,4.31,0,0,0,310.61,212.66Z" transform="translate(-0.14 0.14)"/><path class="cls-25" d="M319.74,203.13h1.51v1a4.09,4.09,0,0,1,3.2-1.5,4.59,4.59,0,0,1,3.88,2.19,4.82,4.82,0,0,1,4.05-2.19,4.74,4.74,0,0,1,4.71,4.75v6.3h-1.52v-6.3a3.2,3.2,0,1,0-6.4,0v6.3h-1.51v-6.3a3.26,3.26,0,0,0-3.21-3.23,3.31,3.31,0,0,0-3.2,3.23v6.3h-1.51Z" transform="translate(-0.14 0.14)"/><path class="cls-25" d="M340.45,208.38a5.78,5.78,0,1,1,5.77,5.77,5.44,5.44,0,0,1-2.45-.63,4.67,4.67,0,0,1-1.85-1.59v5.88h-1.47Zm5.77,4.3a4.3,4.3,0,1,0-4.3-4.3A4.31,4.31,0,0,0,346.22,212.68Z" transform="translate(-0.14 0.14)"/><path class="cls-25" d="M361.11,204.2c-2.79,0-4.28,3-4.28,4.6v4.83h-1.47v-10.5h1.47v2a5.51,5.51,0,0,1,4.49-2.57Z" transform="translate(-0.14 0.14)"/><path class="cls-25" d="M368.57,202.58a5.78,5.78,0,1,1-5.78,5.78A5.77,5.77,0,0,1,368.57,202.58Zm0,10.08a4.31,4.31,0,1,0-4.31-4.3A4.31,4.31,0,0,0,368.57,212.66Z" transform="translate(-0.14 0.14)"/><path class="cls-25" d="M377.7,203.13h1.51v1a4.09,4.09,0,0,1,3.2-1.5,4.59,4.59,0,0,1,3.88,2.19,4.82,4.82,0,0,1,4-2.19,4.73,4.73,0,0,1,4.7,4.75v6.3h-1.51v-6.3a3.2,3.2,0,1,0-6.4,0v6.3h-1.51v-6.3a3.26,3.26,0,0,0-3.21-3.23,3.31,3.31,0,0,0-3.2,3.23v6.3H377.7Z" transform="translate(-0.14 0.14)"/><path class="cls-25" d="M400,199.52a.88.88,0,1,1-.88.88A.87.87,0,0,1,400,199.52Zm-.75,3.61h1.47v10.5h-1.47Z" transform="translate(-0.14 0.14)"/><path class="cls-25" d="M408.05,208.78c-1.7-.44-3.34-1.18-3.34-3.15,0-1.64,1.7-3,3.59-3a3.45,3.45,0,0,1,3.44,2.61h-1.57a1.87,1.87,0,0,0-1.87-1.26c-.86,0-2.12.59-2.12,1.64,0,1.21,1.64,1.59,2.52,1.89,1.91.63,3.34,1.4,3.34,3.54,0,2-1.77,3.13-3.74,3.13a3.7,3.7,0,0,1-3.89-3.59v-.1h1.49v.08a2.23,2.23,0,0,0,2.5,2.16c1.37,0,2.1-.84,2.1-1.68C410.5,209.56,409.73,209.22,408.05,208.78Z" transform="translate(-0.14 0.14)"/><path class="cls-25" d="M420.54,202.58a5.78,5.78,0,1,1-5.77,5.78A5.77,5.77,0,0,1,420.54,202.58Zm0,10.08a4.31,4.31,0,1,0-4.3-4.3A4.31,4.31,0,0,0,420.54,212.66Z" transform="translate(-0.14 0.14)"/><path class="cls-25" d="M290.28,256.83h-1.47v-14.7h1.47V250l7.73-7.85h2.28l-7.07,7.14,7.07,7.56h-2.07l-6.07-6.47-1.87,1.87Z" transform="translate(-0.14 0.14)"/><path class="cls-25" d="M303.36,242.72a.88.88,0,1,1-.88.88A.86.86,0,0,1,303.36,242.72Zm-.75,3.61h1.47v10.5h-1.47Z" transform="translate(-0.14 0.14)"/><path class="cls-25" d="M308.49,242.13H310v14.7h-1.47Z" transform="translate(-0.14 0.14)"/><path class="cls-25" d="M318.88,245.78a5.78,5.78,0,1,1-5.77,5.78A5.77,5.77,0,0,1,318.88,245.78Zm0,10.08a4.31,4.31,0,1,0-4.3-4.3A4.31,4.31,0,0,0,318.88,255.86Z" transform="translate(-0.14 0.14)"/><path class="cls-25" d="M328,246.33h1.51v.95a4.05,4.05,0,0,1,3.19-1.5A4.58,4.58,0,0,1,336.6,248a4.84,4.84,0,0,1,4.06-2.19,4.74,4.74,0,0,1,4.7,4.75v6.3h-1.51v-6.3a3.21,3.21,0,1,0-6.41,0v6.3h-1.51v-6.3a3.25,3.25,0,0,0-3.21-3.23,3.31,3.31,0,0,0-3.19,3.23v6.3H328Z" transform="translate(-0.14 0.14)"/><path class="cls-25" d="M354.29,255.86a4.31,4.31,0,0,0,3-1.26,4,4,0,0,0,.71-1h1.62l-.06.17a5.78,5.78,0,1,1,0-4.5,5.34,5.34,0,0,1,.44,1.81H350a3.17,3.17,0,0,0,0,.44A4.31,4.31,0,0,0,354.29,255.86Zm4-5.92a4.3,4.3,0,0,0-8,0Z" transform="translate(-0.14 0.14)"/><path class="cls-25" d="M363,247.82v-1.47h1.07v-4.2h1.47v4.2h2.75v1.47h-2.75v9h-1.47v-9Z" transform="translate(-0.14 0.14)"/><path class="cls-25" d="M377.81,247.4c-2.8,0-4.29,3-4.29,4.6v4.83h-1.47v-10.5h1.47v2a5.53,5.53,0,0,1,4.5-2.57Z" transform="translate(-0.14 0.14)"/><path class="cls-25" d="M385.26,245.78a5.78,5.78,0,1,1-5.77,5.78A5.77,5.77,0,0,1,385.26,245.78Zm0,10.08a4.31,4.31,0,1,0-4.3-4.3A4.31,4.31,0,0,0,385.26,255.86Z" transform="translate(-0.14 0.14)"/><path class="cls-25" d="M412,251.56a5.77,5.77,0,1,1-5.77-5.78,5.17,5.17,0,0,1,2.46.66,4.38,4.38,0,0,1,1.84,1.57v-5.88H412Zm-5.77-4.31a4.31,4.31,0,1,0,4.3,4.31A4.31,4.31,0,0,0,406.26,247.25Z" transform="translate(-0.14 0.14)"/><path class="cls-25" d="M420.54,255.86a4.28,4.28,0,0,0,3-1.26,4,4,0,0,0,.72-1h1.62l-.07.17a5.78,5.78,0,1,1,0-4.5,5.34,5.34,0,0,1,.44,1.81h-10a3.17,3.17,0,0,0,0,.44A4.31,4.31,0,0,0,420.54,255.86Zm4-5.92a4.3,4.3,0,0,0-8,0Z" transform="translate(-0.14 0.14)"/><path class="cls-25" d="M436.38,246.33h1.51v.95a4.05,4.05,0,0,1,3.19-1.5A4.58,4.58,0,0,1,445,248a4.82,4.82,0,0,1,4.05-2.19,4.74,4.74,0,0,1,4.71,4.75v6.3h-1.51v-6.3a3.21,3.21,0,1,0-6.41,0v6.3h-1.51v-6.3a3.25,3.25,0,0,0-3.21-3.23,3.31,3.31,0,0,0-3.19,3.23v6.3h-1.51Z" transform="translate(-0.14 0.14)"/><path class="cls-25" d="M462.65,245.78a5.77,5.77,0,0,1,5.77,5.78v5.27H467v-1.41l-.23.23a5.78,5.78,0,1,1-4.07-9.87Zm0,10.08a4.31,4.31,0,1,0-4.31-4.3A4.31,4.31,0,0,0,462.65,255.86Zm1-11.06h-2l3-2.73h2Z" transform="translate(-0.14 0.14)"/><path class="cls-25" d="M479,248.51c-2.91-.75-5.72-2-5.72-5.4,0-2.8,2.92-5.21,6.16-5.21a5.9,5.9,0,0,1,5.9,4.46h-2.7a3.19,3.19,0,0,0-3.2-2.16c-1.48,0-3.64,1-3.64,2.81,0,2.08,2.81,2.73,4.32,3.24,3.28,1.08,5.72,2.41,5.72,6.08,0,3.38-3,5.36-6.4,5.36s-6.66-2.3-6.66-6.15v-.18h2.55v.14c0,1.66,1.19,3.71,4.29,3.71,2.34,0,3.6-1.44,3.6-2.88C483.25,249.85,481.91,249.27,479,248.51Z" transform="translate(-0.14 0.14)"/></svg>
