<svg xmlns="http://www.w3.org/2000/svg" width="2560" height="1440" viewBox="0 0 2560 1440">
    <defs>
        <style>
            .cls-1{fill:#95bc11;}
            .cls-2{fill:#009ba7;}
            .cls-3{fill:#fefefe;}
            .cls-4{fill:#000002;}
            .cls-5{fill:#fafdfd;}
            .cls-6{fill:#e5f5f6;}
            .cls-7{fill:#e6f6f7;}
            .cls-8{fill:#f0f9fa;}
            .cls-9{fill:#e4f5f6;}
            .cls-10{fill:#eef9f9;}
            .cls-11{fill:#ecf8f9;}
            .cls-12{fill:#ebf8f8;}
            .cls-13{fill:#e9f7f7;}
            .cls-14{fill:#ceeef0;}
            .cls-15{fill:#dcf2f4;}
            .cls-16{fill:#e7f6f7;}
            .cls-17{fill:#edf8f9;}
            .cls-18{fill:#b9e6e9;}
            .cls-19{fill:#eef8f9;}
            .cls-20{fill:#019da8;}
            .cls-21{fill:#009ca8;}
            .cls-22{fill:#029da9;}
            .cls-23{fill:#019ca8;}
            .cls-24{fill:#019da9;}
            .cls-25{fill:#fff;}
            .cls-26{fill:none;}
        </style>
    </defs>
    <path class="cls-1" d="M2144.19,1046c34.63,9.7,67.9,17.66,91.43,43.29,15.67,17.07,10.83,41-11,59.39-3.06-23-9.36-44.41-28.61-60.49,8.86,17,15.52,34.38,14,53.77-1.18,15-3.83,17.21-19.21,13.07-21.06-5.68-30.5-17.19-31.46-39-.37-8.32-.07-16.66-.08-25C2159.2,1066.87,2159.2,1066.87,2144.19,1046Z" transform="translate(-0.14 0.14)"/>
    <path class="cls-1" d="M2304,1106.55a60.4,60.4,0,0,0-21.4,29.53,145.28,145.28,0,0,1-7.47,16.63,21.41,21.41,0,0,1-10.76,10.37c-8.85,3.81-19.25,5.7-26.16-.67-5.56-5.11,0-13.74,4.19-18.35,8.26-9.14,9.44-19.21,9-30.11-.2-5.35,2.53-7.47,8-7.44C2274.32,1106.61,2289.16,1106.55,2304,1106.55Z" transform="translate(-0.14 0.14)"/>
    <path class="cls-2" d="M149.89,50C205.61,49.73,251.37,96.09,250,152.57c-1.3,52.66-44.57,97.89-100.91,97.43-55.76-.46-100.15-46.58-99-102.09C51.1,94.05,95.35,49.91,149.89,50Z" transform="translate(-0.14 0.14)"/>
    <path class="cls-3" d="M56.37,150.2a93.63,93.63,0,1,1,187.26-.3c0,53-42.8,92.78-91.68,93.74C99.45,244.67,56.41,202.16,56.37,150.2Z" transform="translate(-0.14 0.14)"/>
    <path class="cls-2" d="M236.73,150.08a86.78,86.78,0,1,1-86.26-86.94C200.63,63.42,237.31,104.72,236.73,150.08Z" transform="translate(-0.14 0.14)"/>
    <path class="cls-4" d="M164.67,121.14c0-4.25,0-8.51,0-12.76,0-3.66,1.62-5.24,5.3-5.26,4.51,0,9,0,13.53,0a18,18,0,0,1,17.59,18.32A17.69,17.69,0,0,1,183.35,139c-4.5,0-9,0-13.52.05-3.25,0-5.1-1.63-5.14-4.9C164.64,129.82,164.67,125.48,164.67,121.14Z" transform="translate(-0.14 0.14)"/>
    <path class="cls-4" d="M135.07,119.39c0,4.75,0,9.49,0,14.23,0,3.68-1.64,5.51-4.84,5.49-2.81,0-4.33-1.9-4.34-5.4,0-8.41,0-16.83,0-25.24,0-2.26.54-4.09,2.71-5a5,5,0,0,1,5.8,1.36q7.78,7.71,15.6,15.39c.9.88,1.86,1.71,2.78,2.55.88-.57.49-1.31.5-1.91,0-4.5-.05-9,.07-13.51.07-2.67,1.8-4.18,4.44-4.24s4.45,1.46,4.48,4.14c.09,9.26.05,18.52,0,27.79a3.76,3.76,0,0,1-2.64,3.7,4.71,4.71,0,0,1-5.18-1c-5.64-5.54-11.31-11-16.93-16.59a18.43,18.43,0,0,1-1.69-2.21Z" transform="translate(-0.14 0.14)"/>
    <path class="cls-5" d="M134.05,173.83c-3.57,0-7.14.06-10.71,0-3.16-.07-4.24-1.18-4.26-4.38q-.06-10.32,0-20.66c0-3.5,1.24-4.64,4.84-4.65q10.2,0,20.4,0c3,0,4.49,1.25,4.54,3.61.06,2.59-1.4,3.86-4.51,3.87-5.36,0-10.71,0-16.07,0-1.37,0-2,.3-1.93,1.82s.42,1.92,1.89,1.89q6.38-.12,12.75,0c3.11.05,4.93,2.45,4,5a3.51,3.51,0,0,1-3.33,2.29,87.74,87.74,0,0,1-13,0c-1.25-.06-2.34,0-2.29,1.83,0,1.5.42,2.11,2,2.08,5.35-.08,10.71,0,16.06,0,3.1,0,4.36,1.05,4.41,3.61s-1.28,3.67-4.36,3.71C141,173.87,137.53,173.84,134.05,173.83Z" transform="translate(-0.14 0.14)"/>
    <path class="cls-5" d="M110.23,162.58c1.72,1.64,3.29,3.06,4.79,4.57,2,2,2.17,3.71.72,5.35s-3.93,1.79-5.91,0c-3-2.66-6-5.28-8.73-8.21-1.7-1.85-3.63-1.45-5.6-1.5-1.07,0-.82.88-.83,1.51,0,1.78.06,3.57,0,5.35-.15,2.62-1.63,4.1-3.91,4.08s-3.62-1.4-3.63-4.21q0-10.59,0-21.19c0-2.71,1.31-4.16,4-4.21,5.69-.09,11.4-.17,17.09,0a9.27,9.27,0,0,1,3.58,17.67C111.33,162.08,110.87,162.28,110.23,162.58Z" transform="translate(-0.14 0.14)"/>
    <path class="cls-5" d="M158.55,157.73c0,3.82,0,7.65,0,11.48,0,2.95-1.47,4.63-3.91,4.61s-3.64-1.57-3.65-4.51c0-6.8,0-13.61,0-20.41,0-1.9.28-3.54,2.27-4.39s3.55.08,5,1.47q6.36,6.26,12.77,12.46c.66.64,1.34,1.24,2.47,2.29,0-4.29,0-8.06,0-11.82,0-1.5.14-3,1.44-3.89a3.65,3.65,0,0,1,3.82-.55,3.51,3.51,0,0,1,2.29,3.36c.06,7.48,0,15,0,22.45a3.38,3.38,0,0,1-2.4,3.27,4.2,4.2,0,0,1-4.63-1.27c-3.75-3.7-7.51-7.39-11.23-11.13-1.24-1.24-2.37-2.6-3.54-3.9Z" transform="translate(-0.14 0.14)"/>
    <path class="cls-4" d="M105.09,117.46c-3.12,6.14-6.21,12.26-9.32,18.38-1.54,3-3.9,4.07-6.33,2.83s-3-3.62-1.53-6.57q6.59-13.2,13.3-26.35c1.85-3.61,6.17-3.78,8.05-.17,4.75,9.09,9.31,18.29,13.84,27.5a4,4,0,0,1-2,5.56c-2.34,1.12-4.65.39-6-2.17-2.91-5.56-5.69-11.19-8.53-16.78A5,5,0,0,0,105.09,117.46Z" transform="translate(-0.14 0.14)"/>
    <path class="cls-5" d="M198,144.13c3.49,0,7,0,10.46,0,2.77,0,4.39,1.5,4.33,3.87s-1.56,3.52-4.29,3.61c-2.2.08-5.05-.93-6.41.42s-.44,4.37-.49,6.64c-.09,3.65,0,7.31,0,11,0,2.69-1.42,4.19-3.73,4.16s-3.58-1.49-3.59-4.24c0-5.28-.06-10.55,0-15.82,0-1.65-.41-2.3-2.12-2.17a45.66,45.66,0,0,1-5.1,0c-2.53-.07-4-1.39-4-3.58s1.36-3.8,4-3.87C190.72,144.06,194.38,144.13,198,144.13Z" transform="translate(-0.14 0.14)"/>
    <path class="cls-4" d="M212.84,121.06c0,4.33,0,8.67,0,13,0,3.31-1.48,4.88-4.46,4.94s-4.84-1.56-4.87-4.88q-.1-13.12,0-26.25a4.41,4.41,0,0,1,4.81-4.75c2.88,0,4.5,1.76,4.52,4.94C212.87,112.39,212.84,116.73,212.84,121.06Z" transform="translate(-0.14 0.14)"/>
    <path class="cls-1" d="M150.42,226.6c-.58-5.36-2-10-6.4-14.3,2.13,4.36,3.65,8.11,3.37,12.36-.25,3.78-.84,4.29-4.48,3.16-4.1-1.27-6.06-4-6.2-8.81q-.09-2.94,0-5.86c.11-3.39-.27-6.61-2.86-9.29,7.22,1.85,14.48,3.63,19.31,9.88C156,217.45,154.89,222.25,150.42,226.6Z" transform="translate(-0.14 0.14)"/>
    <path class="cls-1" d="M167.16,217.05a13.66,13.66,0,0,0-4.52,6.64,22.15,22.15,0,0,1-1.85,4.16,5.73,5.73,0,0,1-6.69,2.28c-1-.36-1.39-.91-1.06-1.91a6.92,6.92,0,0,1,.81-2.12,10.63,10.63,0,0,0,2.27-7.67c-.08-1.14.73-1.39,1.69-1.38Z" transform="translate(-0.14 0.14)"/>
    <path class="cls-6" d="M138,194.44c-.24.39.77,1.88-.6,1.85-2.48,0-5.74,1.38-6.78-2.49a3.77,3.77,0,0,1,6.89-2.87A4.63,4.63,0,0,1,138,194.44Z" transform="translate(-0.14 0.14)"/>
    <path class="cls-7" d="M177.47,191.38c-.07,1.28.32,2.82-1,4.07a3.63,3.63,0,0,1-5.22.18c-1.67-1.52-1.73-7.21-.07-8.76a3.66,3.66,0,0,1,4-.77,3.26,3.26,0,0,1,2.28,3C177.49,189.81,177.47,190.49,177.47,191.38Z" transform="translate(-0.14 0.14)"/>
    <path class="cls-8" d="M123,195.76c-.43,1.47.23,2.88-.75,4.69,0-3.23-.19-5.91.06-8.56.18-1.92,2.36-3.14,4.19-2.76a3.88,3.88,0,0,1,2.95,4.63,3.67,3.67,0,0,1-4.19,2.85A14.31,14.31,0,0,1,123,195.76Z" transform="translate(-0.14 0.14)"/>
    <path class="cls-9" d="M114.42,189a3.85,3.85,0,0,1,3.81,3.92,4,4,0,0,1-3.79,3.7,3.81,3.81,0,0,1,0-7.62Z" transform="translate(-0.14 0.14)"/>
    <path class="cls-10" d="M109,190c0-.87,0-1.54,0-2.2s-.21-1.19.56-2c0,2.59.06,4.91,0,7.22a3.6,3.6,0,0,1-4,3.53A3.79,3.79,0,1,1,107,189.2C107.63,189.39,108.21,189.7,109,190Z" transform="translate(-0.14 0.14)"/>
    <path class="cls-11" d="M150.41,193.79c0,2.16,0,2-.83,2.19-1.91.34-3.85,1.34-5.58-.46a3.91,3.91,0,0,1,2.75-6.47C149.06,189.09,150.4,190.83,150.41,193.79Z" transform="translate(-0.14 0.14)"/>
    <path class="cls-12" d="M210.65,193.85c0,2.07,0,1.9-.88,2.1-1.93.46-3.85,1.31-5.57-.48a3.58,3.58,0,0,1-.93-2.56,3.64,3.64,0,0,1,3.78-3.86C209.37,189.11,210.64,190.81,210.65,193.85Z" transform="translate(-0.14 0.14)"/>
    <path class="cls-13" d="M101.4,193.24a3.85,3.85,0,0,1-4,3.4,3.81,3.81,0,0,1,.53-7.59A3.84,3.84,0,0,1,101.4,193.24Z" transform="translate(-0.14 0.14)"/>
    <path class="cls-14" d="M182.27,192.52c-3.62-.68-2.61,2-2.81,3.83-1.11-.21-.8-1-.81-1.59,0-2.37-.06-4.75,0-7.12,0-1,.42-2.06,1.66-2.23s1.8.58,2.27,1.78c-1.1.23-2.47-2-3,.28a10.36,10.36,0,0,0,0,3.29C179.74,192.4,181.68,190.83,182.27,192.52Z" transform="translate(-0.14 0.14)"/>
    <path class="cls-15" d="M161.16,189.5a38.68,38.68,0,0,0,0,4c.12,1.14.64,2.18,2.08,2.08s1.86-.92,1.9-2.22-.25-2.69.21-4c1.11,1.6,1.13,5.09,0,6.28a2.63,2.63,0,0,1-3.65.52C160.25,195.18,159.81,192.36,161.16,189.5Z" transform="translate(-0.14 0.14)"/>
    <path class="cls-16" d="M159.14,189.48c-.62.77-1.25.49-1.8.53-.83.05-1.85-.17-2,1s.86,1.24,1.73,1.31c.68.06,1.42.14,1.77.8a2.06,2.06,0,0,1-.72,3.06c-.9.54-1.82.49-3.66-.26a4.17,4.17,0,0,1,2.48-.35c.78,0,1.37-.3,1.45-1.07a1.2,1.2,0,0,0-1.21-1.36c-1.75,0-3.13-.37-2.72-2.56C154.77,189.15,156.41,188.75,159.14,189.48Z" transform="translate(-0.14 0.14)"/>
    <path class="cls-6" d="M191.18,195.52a2.73,2.73,0,0,1-4.22.09,4.09,4.09,0,0,1-.29-5.32c1.21-1.44,2.89-1.57,4.81-.12-1.28,0-2.35-.5-3.25.12a2.88,2.88,0,0,0-1.57,2.71C186.82,194.9,188.41,195.79,191.18,195.52Z" transform="translate(-0.14 0.14)"/>
    <path class="cls-17" d="M201.86,196.34c-1-2.2.75-6.17-3.39-6.22-4.3-.05-2.27,4.07-3.48,6.18,0-2.28-1.18-4.79,1.37-6.57a3.35,3.35,0,0,1,4.25.08C202.88,191.6,202,194,201.86,196.34Z" transform="translate(-0.14 0.14)"/>
    <path class="cls-3" d="M184.34,196.35a10.05,10.05,0,0,1,0-6.78Z" transform="translate(-0.14 0.14)"/>
    <path class="cls-18" d="M91.12,187c-1-.24-2,.28-3.42-.82a23.18,23.18,0,0,1,7.39,0c-1.15,1-2.08.65-2.93.68C91.78,186.57,91.47,187,91.12,187Z" transform="translate(-0.14 0.14)"/>
    <path class="cls-19" d="M143.24,189.58c-4.14,1-3.43,4.1-3.69,7.19C138.52,192.53,139.16,188.9,143.24,189.58Z" transform="translate(-0.14 0.14)"/>
    <path class="cls-5" d="M91.12,187c.3-.54.64-.6,1-.1-.82,3.1.21,6.33-1,9.42Z" transform="translate(-0.14 0.14)"/>
    <path class="cls-5" d="M193.1,196.23a11.65,11.65,0,0,1,0-6.62Z" transform="translate(-0.14 0.14)"/>
    <path class="cls-2" d="M173.86,121c0-2.3.07-4.59,0-6.88-.06-1.39.36-2.06,1.82-2a62.73,62.73,0,0,1,7.87.26c4.7.76,8.24,4.24,8.51,8.47.24,3.77-2.75,7.48-7.14,8.83-3.24,1-6.59.25-9.88.52-1.26.11-1.15-.95-1.16-1.8Z" transform="translate(-0.14 0.14)"/>
    <path class="cls-2" d="M102.35,151.61c1.69,0,3.39,0,5.08,0,1.32,0,2.2,0,2.18,1.82,0,1.62-.55,2-2,2-3.64-.09-7.28-.1-10.92,0-1.52,0-2-.36-2-2,0-1.78.83-1.88,2.17-1.83C98.62,151.66,100.49,151.61,102.35,151.61Z" transform="translate(-0.14 0.14)"/>
    <path class="cls-20" d="M134.39,195.69c-1.84-.12-2.92-.94-2.94-2.82A2.48,2.48,0,0,1,134,190a2.62,2.62,0,0,1,3.06,2.63C137.16,194.45,136.09,195.43,134.39,195.69Z" transform="translate(-0.14 0.14)"/>
    <path class="cls-21" d="M176.69,191.11a14.92,14.92,0,0,1,0,1.77,2.72,2.72,0,0,1-3,2.77c-1.76,0-2.55-1.16-2.83-2.68a13.57,13.57,0,0,1,0-2.78c0-1.94.92-3.4,2.92-3.45s2.93,1.38,3,3.36v1Z" transform="translate(-0.14 0.14)"/>
    <path class="cls-22" d="M125.7,195.69a2.84,2.84,0,1,1,.18-5.67,2.64,2.64,0,0,1,2.78,2.92C128.65,194.69,127.57,195.68,125.7,195.69Z" transform="translate(-0.14 0.14)"/>
    <path class="cls-23" d="M114.5,190a2.75,2.75,0,0,1,2.72,3,2.52,2.52,0,0,1-2.68,2.71,2.57,2.57,0,0,1-2.9-2.75C111.58,191.07,112.71,190.19,114.5,190Z" transform="translate(-0.14 0.14)"/>
    <path class="cls-22" d="M106.1,190a2.83,2.83,0,1,1-3,2.75A2.73,2.73,0,0,1,106.1,190Z" transform="translate(-0.14 0.14)"/>
    <path class="cls-22" d="M146.6,190c2,.09,3,1.18,2.93,2.91a2.59,2.59,0,0,1-3,2.75,2.64,2.64,0,0,1-2.73-2.76A2.7,2.7,0,0,1,146.6,190Z" transform="translate(-0.14 0.14)"/>
    <path class="cls-24" d="M206.66,195.68a2.73,2.73,0,0,1-2.58-3,2.85,2.85,0,0,1,5.7.25C209.75,194.64,208.67,195.67,206.66,195.68Z" transform="translate(-0.14 0.14)"/>
    <path class="cls-22" d="M97.51,195.69a2.7,2.7,0,0,1-2.7-2.92,2.86,2.86,0,0,1,5.72,0C100.56,194.51,99.55,195.63,97.51,195.69Z" transform="translate(-0.14 0.14)"/>
    <path class="cls-25" d="M1984.64,985v-3.36H2007V985h-9.5v30.24h-3.36V985Z" transform="translate(-0.14 0.14)"/>
    <path class="cls-25" d="M2023.09,990a13.21,13.21,0,1,1-13.2,13.21A13.2,13.2,0,0,1,2023.09,990Zm0,23a9.85,9.85,0,1,0-9.84-9.84A9.85,9.85,0,0,0,2023.09,1013Z" transform="translate(-0.14 0.14)"/>
    <path class="cls-25" d="M2068.45,1003.17a13.2,13.2,0,1,1-13.2-13.21,12,12,0,0,1,5.62,1.49,10.2,10.2,0,0,1,4.22,3.6V981.61h3.36Zm-13.2-9.85a9.85,9.85,0,1,0,9.84,9.85A9.86,9.86,0,0,0,2055.25,993.32Z" transform="translate(-0.14 0.14)"/>
    <path class="cls-25" d="M2087.89,990a13.21,13.21,0,1,1-13.2,13.21A13.2,13.2,0,0,1,2087.89,990Zm0,23a9.85,9.85,0,1,0-9.84-9.84A9.85,9.85,0,0,0,2087.89,1013Z" transform="translate(-0.14 0.14)"/>
    <path class="cls-25" d="M2123.17,1003.21a13.2,13.2,0,1,1,13.2,13.2,12.54,12.54,0,0,1-5.62-1.44,10.57,10.57,0,0,1-4.22-3.64v13.44h-3.36Zm13.2,9.84a9.84,9.84,0,1,0-9.84-9.84A9.85,9.85,0,0,0,2136.37,1013.05Z" transform="translate(-0.14 0.14)"/>
    <path class="cls-25" d="M2167.57,990a13.2,13.2,0,0,1,13.2,13.21v12h-3.36V1012l-.53.53a13.2,13.2,0,1,1-9.31-22.57Zm0,23a9.85,9.85,0,1,0-9.84-9.84A9.85,9.85,0,0,0,2167.57,1013Z" transform="translate(-0.14 0.14)"/>
    <path class="cls-25" d="M2202.56,993.66c-6.38,0-9.79,6.77-9.79,10.51v11h-3.36v-24h3.36v4.61A12.63,12.63,0,0,1,2203,990Z" transform="translate(-0.14 0.14)"/>
    <path class="cls-25" d="M2219.6,990a13.2,13.2,0,0,1,13.2,13.21v12h-3.36V1012l-.52.53A13.21,13.21,0,1,1,2219.6,990Zm0,23a9.85,9.85,0,1,0-9.84-9.84A9.85,9.85,0,0,0,2219.6,1013Z" transform="translate(-0.14 0.14)"/>
    <path class="cls-25" d="M2264.19,1004.12c-3.89-1-7.63-2.68-7.63-7.2,0-3.74,3.89-7,8.21-7,5,0,7.63,4,7.87,6H2269a4.26,4.26,0,0,0-4.27-2.88c-2,0-4.85,1.34-4.85,3.74,0,2.78,3.74,3.65,5.76,4.32,4.37,1.44,7.63,3.22,7.63,8.11,0,4.52-4,7.16-8.54,7.16s-8.88-3.08-8.88-8.21v-.24h3.41v.19c0,2.21,1.58,4.94,5.71,4.94,3.12,0,4.8-1.92,4.8-3.84C2269.81,1005.9,2268,1005.13,2264.19,1004.12Z" transform="translate(-0.14 0.14)"/>
    <path class="cls-25" d="M2298.71,991.21h3.36v14.36a10.78,10.78,0,1,1-21.56,0V991.21H2284v14.36a7.37,7.37,0,0,0,14.74,0Z" transform="translate(-0.14 0.14)"/>
    <path class="cls-25" d="M2342.34,980.46a18,18,0,1,1-18,17.95A18,18,0,0,1,2342.34,980.46Zm0,32.55a14.57,14.57,0,1,0-14.6-14.6A14.7,14.7,0,0,0,2342.34,1013Z" transform="translate(-0.14 0.14)"/>
    <path class="cls-25" d="M2379.49,998.32h-6.15v16.89H2370V998.32h-2.49V995H2370v-8.07a6.44,6.44,0,0,1,12.87,0h-3.36a3.08,3.08,0,0,0-6.15,0V995h9.51v20.25h-3.36Z" transform="translate(-0.14 0.14)"/>
    <path class="cls-25" d="M2403.25,1013a9.87,9.87,0,0,0,7-2.89,9.45,9.45,0,0,0,1.63-2.2h3.7l-.15.38a13.21,13.21,0,1,1,0-10.27l.15.33h-3.75a9.24,9.24,0,0,0-1.58-2.16,9.84,9.84,0,1,0-7,16.81Z" transform="translate(-0.14 0.14)"/>
    <path class="cls-25" d="M2424.46,983a2,2,0,1,1-2,2A2,2,0,0,1,2424.46,983Zm-1.73,8.25h3.36v24h-3.36Z" transform="translate(-0.14 0.14)"/>
    <path class="cls-25" d="M2453.79,1000.81a7.38,7.38,0,0,0-7.34-7.39,7.69,7.69,0,0,0-7.4,7.39v14.4h-3.36v-24h3.36v2.21c1.3-2.11,4.47-3.46,7.4-3.46a10.89,10.89,0,0,1,10.8,10.85v14.4h-3.46Z" transform="translate(-0.14 0.14)"/>
    <path class="cls-25" d="M2476.69,990a13.2,13.2,0,0,1,13.2,13.21v12h-3.36V1012l-.53.53a13.2,13.2,0,1,1-9.31-22.57Zm0,23a9.85,9.85,0,1,0-9.84-9.84A9.86,9.86,0,0,0,2476.69,1013Z" transform="translate(-0.14 0.14)"/>
    <path class="cls-26" d="M49.43,151l-49.29.46" transform="translate(-0.14 0.14)"/>
    <path class="cls-26" d="M148.37,49.57q0-24.85-.52-49.71" transform="translate(-0.14 0.14)"/>
    <path class="cls-25" d="M66.5,353.23h2.77l6.63,21.06,6.62-21.06h2.77l-8.06,25.2H74.56Z" transform="translate(-0.14 0.14)"/>
    <path class="cls-25" d="M97,359.5a9.89,9.89,0,0,1,9.9,9.89v9h-2.52V376l-.4.39a9.9,9.9,0,1,1-7-16.91Zm0,17.27a7.38,7.38,0,1,0-7.38-7.38A7.39,7.39,0,0,0,97,376.77Z" transform="translate(-0.14 0.14)"/>
    <path class="cls-25" d="M113.37,353.23h2.52v25.2h-2.52Z" transform="translate(-0.14 0.14)"/>
    <path class="cls-25" d="M131.19,359.5a9.9,9.9,0,1,1-9.9,9.89A9.89,9.89,0,0,1,131.19,359.5Zm0,17.27a7.38,7.38,0,1,0-7.38-7.38A7.39,7.39,0,0,0,131.19,376.77Z" transform="translate(-0.14 0.14)"/>
    <path class="cls-25" d="M156.89,362.27c-4.78,0-7.34,5.07-7.34,7.88v8.28H147v-18h2.52v3.46a9.45,9.45,0,0,1,7.7-4.39Z" transform="translate(-0.14 0.14)"/>
    <path class="cls-25" d="M169.67,376.77a7.4,7.4,0,0,0,5.22-2.16,7,7,0,0,0,1.23-1.65h2.77l-.11.29a9.9,9.9,0,1,1,0-7.71,9.34,9.34,0,0,1,.76,3.1H162.33a4.71,4.71,0,0,0,0,.75A7.39,7.39,0,0,0,169.67,376.77Zm6.84-10.15a7.38,7.38,0,0,0-13.68,0Z" transform="translate(-0.14 0.14)"/>
    <path class="cls-25" d="M190.3,370.11c-2.91-.75-5.72-2-5.72-5.4,0-2.8,2.91-5.21,6.15-5.21a5.91,5.91,0,0,1,5.91,4.46h-2.7a3.2,3.2,0,0,0-3.21-2.16c-1.47,0-3.63,1-3.63,2.81,0,2.08,2.81,2.73,4.32,3.24,3.27,1.08,5.72,2.41,5.72,6.08,0,3.38-3,5.36-6.41,5.36s-6.66-2.3-6.66-6.15V373h2.56v.14c0,1.66,1.19,3.71,4.28,3.71,2.34,0,3.6-1.44,3.6-2.88C194.51,371.45,193.18,370.87,190.3,370.11Z" transform="translate(-0.14 0.14)"/>
    <path class="cls-25" d="M204,360.43a2,2,0,0,1,2,2,2,2,0,0,1-2,1.94,1.94,1.94,0,0,1-1.95-1.94A2,2,0,0,1,204,360.43Zm0,14.94a2,2,0,0,1,2,2,2,2,0,0,1-2,1.94,1.94,1.94,0,0,1-1.95-1.94A2,2,0,0,1,204,375.37Z" transform="translate(-0.14 0.14)"/>
    <path class="cls-25" d="M72.58,413.6a4.67,4.67,0,0,1-3.36-1.38,4.54,4.54,0,0,1,0-6.6,4.67,4.67,0,0,1,3.36-1.38,4.36,4.36,0,0,1,3.25,1.39,4.7,4.7,0,0,1,0,6.59A4.34,4.34,0,0,1,72.58,413.6Z" transform="translate(-0.14 0.14)"/>
    <path class="cls-25" d="M107.25,409c-3.49-1.12-6.88-2.92-6.88-6.3,0-3.85,4-7.09,8.39-7.09a8.25,8.25,0,0,1,8.06,6.08h-2.77a5.69,5.69,0,0,0-5.43-3.56c-2.7,0-5.62,1.91-5.62,4.35s2.67,3.46,5.51,4.39c3.89,1.26,9,2.78,9,8.36,0,4.64-4,7.3-8.75,7.3s-9.11-3.38-9.11-8.38h2.52c0,3.16,2.88,5.86,6.59,5.86,3.24,0,6.23-1.51,6.23-4.78C115,411.41,110.92,410.15,107.25,409Z" transform="translate(-0.14 0.14)"/>
    <path class="cls-25" d="M131.73,420a7.38,7.38,0,0,0,5.22-2.16,6.73,6.73,0,0,0,1.22-1.65h2.77l-.1.29a9.9,9.9,0,1,1,0-7.71,9.09,9.09,0,0,1,.75,3.1h-17.2a4.71,4.71,0,0,0,0,.75A7.39,7.39,0,0,0,131.73,420Zm6.84-10.15a7.38,7.38,0,0,0-13.68,0Z" transform="translate(-0.14 0.14)"/>
    <path class="cls-25" d="M160.56,410.83a5.53,5.53,0,0,0-5.5-5.54,5.77,5.77,0,0,0-5.55,5.54v10.8H147v-18h2.52v1.66c1-1.59,3.35-2.59,5.55-2.59a8.17,8.17,0,0,1,8.1,8.13v10.8h-2.6Z" transform="translate(-0.14 0.14)"/>
    <path class="cls-25" d="M169.1,406.19v-2.52h1.83v-7.2h2.52v7.2h4.72v2.52h-4.72v15.44h-2.52V406.19Z" transform="translate(-0.14 0.14)"/>
    <path class="cls-25" d="M186.3,397.44a1.51,1.51,0,1,1-1.51,1.51A1.48,1.48,0,0,1,186.3,397.44ZM185,403.63h2.52v18H185Z" transform="translate(-0.14 0.14)"/>
    <path class="cls-25" d="M213.09,412.59a9.9,9.9,0,1,1-9.9-9.89,9,9,0,0,1,4.21,1.11,7.72,7.72,0,0,1,3.17,2.7V396.43h2.52Zm-9.9-7.38a7.38,7.38,0,1,0,7.38,7.38A7.39,7.39,0,0,0,203.19,405.21Z" transform="translate(-0.14 0.14)"/>
    <path class="cls-25" d="M227.67,402.7a9.9,9.9,0,1,1-9.9,9.89A9.89,9.89,0,0,1,227.67,402.7Zm0,17.27a7.38,7.38,0,1,0-7.38-7.38A7.39,7.39,0,0,0,227.67,420Z" transform="translate(-0.14 0.14)"/>
    <path class="cls-25" d="M273.57,412.59a9.9,9.9,0,1,1-9.9-9.89,9.08,9.08,0,0,1,4.21,1.11,7.72,7.72,0,0,1,3.17,2.7V396.43h2.52Zm-9.9-7.38a7.38,7.38,0,1,0,7.38,7.38A7.39,7.39,0,0,0,263.67,405.21Z" transform="translate(-0.14 0.14)"/>
    <path class="cls-25" d="M288.15,420a7.4,7.4,0,0,0,5.22-2.16,7,7,0,0,0,1.22-1.65h2.77l-.11.29a9.9,9.9,0,1,1,0-7.71,8.88,8.88,0,0,1,.76,3.1H280.8a6.27,6.27,0,0,0,0,.75A7.39,7.39,0,0,0,288.15,420ZM295,409.82a7.38,7.38,0,0,0-13.68,0Z" transform="translate(-0.14 0.14)"/>
    <path class="cls-25" d="M328.21,403.63h2.52v10.76a8.08,8.08,0,1,1-16.16,0V403.63h2.59v10.76a5.53,5.53,0,0,0,11,0Z" transform="translate(-0.14 0.14)"/>
    <path class="cls-25" d="M347.26,405.47c-4.79,0-7.35,5.07-7.35,7.88v8.28H337.4v-18h2.51v3.46a9.47,9.47,0,0,1,7.71-4.39Z" transform="translate(-0.14 0.14)"/>
    <path class="cls-25" d="M367.42,403.63h2.52v16.13a9.9,9.9,0,0,1-9.9,9.9,9.79,9.79,0,0,1-7-2.92,10.13,10.13,0,0,1-1.3-1.62l1.84-1.84a6.88,6.88,0,0,0,1.26,1.7,7.38,7.38,0,0,0,12.6-5.22v-.54l-.4.39a9.9,9.9,0,1,1-7-16.91,9.63,9.63,0,0,1,7,2.91,2.16,2.16,0,0,1,.4.4ZM360,420a7.38,7.38,0,1,0-7.38-7.38A7.39,7.39,0,0,0,360,420Z" transform="translate(-0.14 0.14)"/>
    <path class="cls-25" d="M385.06,420a7.38,7.38,0,0,0,5.22-2.16,6.73,6.73,0,0,0,1.22-1.65h2.77l-.1.29a9.9,9.9,0,1,1,0-7.71,9.09,9.09,0,0,1,.75,3.1H377.71a6.27,6.27,0,0,0,0,.75A7.39,7.39,0,0,0,385.06,420Zm6.84-10.15a7.38,7.38,0,0,0-13.68,0Z" transform="translate(-0.14 0.14)"/>
    <path class="cls-25" d="M413.89,410.83a5.53,5.53,0,0,0-5.5-5.54,5.77,5.77,0,0,0-5.55,5.54v10.8h-2.52v-18h2.52v1.66c1-1.59,3.35-2.59,5.55-2.59a8.16,8.16,0,0,1,8.09,8.13v10.8h-2.59Z" transform="translate(-0.14 0.14)"/>
    <path class="cls-25" d="M431.07,420a7.4,7.4,0,0,0,5.22-2.16,7,7,0,0,0,1.22-1.65h2.77l-.11.29a9.9,9.9,0,1,1,0-7.71l.11.25h-2.81a6.88,6.88,0,0,0-1.18-1.62,7.38,7.38,0,1,0-5.22,12.6Z" transform="translate(-0.14 0.14)"/>
    <path class="cls-25" d="M447,397.44a1.51,1.51,0,1,1-1.51,1.51A1.48,1.48,0,0,1,447,397.44Zm-1.3,6.19h2.52v18h-2.52Z" transform="translate(-0.14 0.14)"/>
    <path class="cls-25" d="M463.86,402.7a9.89,9.89,0,0,1,9.9,9.89v9h-2.52v-2.41l-.4.39a9.9,9.9,0,1,1-7-16.91Zm0,17.27a7.38,7.38,0,1,0-7.38-7.38A7.39,7.39,0,0,0,463.86,420Z" transform="translate(-0.14 0.14)"/>
    <path class="cls-25" d="M72.58,456.8a4.67,4.67,0,0,1-3.36-1.38,4.4,4.4,0,0,1-1.42-3.3,4.47,4.47,0,0,1,1.42-3.31,4.7,4.7,0,0,1,3.36-1.37,4.36,4.36,0,0,1,3.25,1.39,4.7,4.7,0,0,1,0,6.59A4.34,4.34,0,0,1,72.58,456.8Z" transform="translate(-0.14 0.14)"/>
    <path class="cls-25" d="M109.16,464.83h-8.25v-25.2h6.77a9.36,9.36,0,0,1,6.12,1.8,6.16,6.16,0,0,1,2.16,5,6.34,6.34,0,0,1-2.16,5l-.14.11a5.93,5.93,0,0,1,1.8,1,6.37,6.37,0,0,1,2.26,5.26,6.43,6.43,0,0,1-2.26,5.18A9.69,9.69,0,0,1,109.16,464.83Zm4.1-18.39a3.81,3.81,0,0,0-1.44-3.21,6.45,6.45,0,0,0-4.07-1.15h-4.32v8.67h5.4a4.49,4.49,0,0,0,3-1.15A3.84,3.84,0,0,0,113.26,446.44ZM115,457.77a4,4,0,0,0-1.55-3.38,6.39,6.39,0,0,0-4.21-1.19h-5.76v9.07h5.76a6.33,6.33,0,0,0,4.21-1.19A4.07,4.07,0,0,0,115,457.77Z" transform="translate(-0.14 0.14)"/>
    <path class="cls-25" d="M136.23,446.83h2.52v10.76a8.08,8.08,0,1,1-16.16,0V446.83h2.59v10.76a5.53,5.53,0,0,0,11,0Z" transform="translate(-0.14 0.14)"/>
    <path class="cls-25" d="M153.51,463.17a7.42,7.42,0,0,0,5.22-2.16,6.92,6.92,0,0,0,1.22-1.65h2.77l-.1.29a9.9,9.9,0,1,1,0-7.71,9.09,9.09,0,0,1,.75,3.1h-17.2a4.71,4.71,0,0,0,0,.75A7.39,7.39,0,0,0,153.51,463.17ZM160.35,453a7.38,7.38,0,0,0-13.68,0Z" transform="translate(-0.14 0.14)"/>
    <path class="cls-25" d="M182.34,454a5.53,5.53,0,0,0-5.5-5.54,5.77,5.77,0,0,0-5.55,5.54v10.8h-2.52v-18h2.52v1.66c1-1.59,3.35-2.59,5.55-2.59a8.17,8.17,0,0,1,8.1,8.13v10.8h-2.6Z" transform="translate(-0.14 0.14)"/>
    <path class="cls-25" d="M199.52,445.9a9.89,9.89,0,0,1,9.9,9.89v9H206.9v-2.41l-.4.39a9.9,9.9,0,1,1-7-16.91Zm0,17.27a7.38,7.38,0,1,0-7.38-7.38A7.39,7.39,0,0,0,199.52,463.17Z" transform="translate(-0.14 0.14)"/>
    <path class="cls-25" d="M235.88,445.9a9.88,9.88,0,0,1,9.89,9.89v9h-2.52v-2.41l-.39.39a9.9,9.9,0,1,1-7-16.91Zm0,17.27a7.38,7.38,0,1,0-7.38-7.38A7.39,7.39,0,0,0,235.88,463.17Z" transform="translate(-0.14 0.14)"/>
    <path class="cls-25" d="M260.36,463.17a7.4,7.4,0,0,0,5.21-2.16,7.24,7.24,0,0,0,1.23-1.65h2.77l-.11.29a9.9,9.9,0,1,1,0-7.71l.11.25h-2.81a6.65,6.65,0,0,0-1.19-1.62,7.38,7.38,0,1,0-5.21,12.6Z" transform="translate(-0.14 0.14)"/>
    <path class="cls-25" d="M274.25,449.39v-2.52h1.84v-7.2h2.52v7.2h4.71v2.52h-4.71v15.44h-2.52V449.39Z" transform="translate(-0.14 0.14)"/>
    <path class="cls-25" d="M291.46,440.64a1.51,1.51,0,1,1-1.51,1.51A1.48,1.48,0,0,1,291.46,440.64Zm-1.3,6.19h2.52v18h-2.52Z" transform="translate(-0.14 0.14)"/>
    <path class="cls-25" d="M299.52,449.39v-2.52h1.84v-7.2h2.52v7.2h4.72v2.52h-4.72v15.44h-2.52V449.39Z" transform="translate(-0.14 0.14)"/>
    <path class="cls-25" d="M328,446.83h2.52v10.76a8.08,8.08,0,1,1-16.16,0V446.83H317v10.76a5.53,5.53,0,0,0,11.05,0Z" transform="translate(-0.14 0.14)"/>
    <path class="cls-25" d="M355.18,455.79a9.9,9.9,0,1,1-9.9-9.89,8.93,8.93,0,0,1,4.21,1.11,7.72,7.72,0,0,1,3.17,2.7V439.63h2.52Zm-9.9-7.38a7.38,7.38,0,1,0,7.38,7.38A7.39,7.39,0,0,0,345.28,448.41Z" transform="translate(-0.14 0.14)"/>
    <path class="cls-25" d="M72.58,500a4.67,4.67,0,0,1-3.36-1.38,4.54,4.54,0,0,1,0-6.6,4.67,4.67,0,0,1,3.36-1.38A4.36,4.36,0,0,1,75.83,492a4.7,4.7,0,0,1,0,6.59A4.34,4.34,0,0,1,72.58,500Z" transform="translate(-0.14 0.14)"/>
    <path class="cls-25" d="M125.39,495.72c0,4-.68,6.84-2.12,8.6a11.09,11.09,0,0,1-4.75,3.64,16.49,16.49,0,0,1-5.4.93,13.46,13.46,0,1,1,0-26.92,13.39,13.39,0,0,1,9.5,4A12.4,12.4,0,0,1,125,489.1h-3a8.14,8.14,0,0,0-1.16-1.34,10.71,10.71,0,0,0-7.66-3.24,10.93,10.93,0,1,0,0,21.85c3,0,5.9-.72,7.92-3.42a7.59,7.59,0,0,0,1.44-4.71h-8.43v-2.52Z" transform="translate(-0.14 0.14)"/>
    <path class="cls-25" d="M139.43,506.37a7.4,7.4,0,0,0,5.22-2.16,7,7,0,0,0,1.23-1.65h2.77l-.11.29a9.9,9.9,0,1,1,0-7.71,9.34,9.34,0,0,1,.76,3.1H132.09a4.71,4.71,0,0,0,0,.75A7.39,7.39,0,0,0,139.43,506.37Zm6.84-10.15a7.38,7.38,0,0,0-13.68,0Z" transform="translate(-0.14 0.14)"/>
    <path class="cls-25" d="M168.27,497.23a5.54,5.54,0,0,0-5.51-5.54,5.76,5.76,0,0,0-5.54,5.54V508H154.7V490h2.52v1.66c1-1.59,3.34-2.59,5.54-2.59a8.16,8.16,0,0,1,8.1,8.13V508h-2.59Z" transform="translate(-0.14 0.14)"/>
    <path class="cls-25" d="M185.62,506.37a7.4,7.4,0,0,0,5.22-2.16,6.73,6.73,0,0,0,1.22-1.65h2.77l-.1.29a9.9,9.9,0,1,1,0-7.71,9.09,9.09,0,0,1,.75,3.1h-17.2a4.71,4.71,0,0,0,0,.75A7.39,7.39,0,0,0,185.62,506.37Zm6.84-10.15a7.38,7.38,0,0,0-13.68,0Z" transform="translate(-0.14 0.14)"/>
    <path class="cls-25" d="M210.93,491.87c-4.79,0-7.35,5.07-7.35,7.88V508h-2.51V490h2.51v3.46a9.47,9.47,0,0,1,7.71-4.39Z" transform="translate(-0.14 0.14)"/>
    <path class="cls-25" d="M223.71,489.1a9.89,9.89,0,0,1,9.9,9.89v9h-2.52v-2.41l-.4.39a9.9,9.9,0,1,1-7-16.91Zm0,17.27a7.38,7.38,0,1,0-7.38-7.38A7.39,7.39,0,0,0,223.71,506.37Z" transform="translate(-0.14 0.14)"/>
    <path class="cls-25" d="M250,491.87c-4.79,0-7.34,5.07-7.34,7.88V508h-2.52V490h2.52v3.46a9.45,9.45,0,0,1,7.7-4.39Z" transform="translate(-0.14 0.14)"/>
    <path class="cls-25" d="M274.61,506.37a7.4,7.4,0,0,0,5.22-2.16,6.73,6.73,0,0,0,1.22-1.65h2.78l-.11.29a9.9,9.9,0,1,1,0-7.71l.11.25H281a6.92,6.92,0,0,0-1.19-1.62,7.38,7.38,0,1,0-5.22,12.6Z" transform="translate(-0.14 0.14)"/>
    <path class="cls-25" d="M297.33,489.1a9.9,9.9,0,1,1-9.9,9.89A9.89,9.89,0,0,1,297.33,489.1Zm0,17.27A7.38,7.38,0,1,0,290,499,7.39,7.39,0,0,0,297.33,506.37Z" transform="translate(-0.14 0.14)"/>
    <path class="cls-25" d="M326.2,497.23a5.54,5.54,0,0,0-5.51-5.54,5.76,5.76,0,0,0-5.54,5.54V508h-2.52V490h2.52v1.66c1-1.59,3.35-2.59,5.54-2.59a8.16,8.16,0,0,1,8.1,8.13V508H326.2Z" transform="translate(-0.14 0.14)"/>
    <path class="cls-25" d="M343.73,495.36h-4.61V508H336.6V495.36h-1.87v-2.52h1.87v-6a4.83,4.83,0,0,1,9.65,0h-2.52a2.31,2.31,0,0,0-4.61,0v6h7.13V508h-2.52Z" transform="translate(-0.14 0.14)"/>
    <path class="cls-25" d="M361.55,489.1a9.89,9.89,0,0,1,9.9,9.89v9h-2.52v-2.41l-.4.39a9.9,9.9,0,1,1-7-16.91Zm0,17.27a7.38,7.38,0,1,0-7.38-7.38A7.39,7.39,0,0,0,361.55,506.37Z" transform="translate(-0.14 0.14)"/>
    <path class="cls-25" d="M391,497.23a5.53,5.53,0,0,0-5.5-5.54,5.77,5.77,0,0,0-5.55,5.54V508h-2.52V490h2.52v1.66c1-1.59,3.35-2.59,5.55-2.59a8.16,8.16,0,0,1,8.09,8.13V508H391Z" transform="translate(-0.14 0.14)"/>
    <path class="cls-25" d="M403.1,505.51h11.12V508h-15.8l10.76-15.48h-9.32V490h14.36Z" transform="translate(-0.14 0.14)"/>
    <path class="cls-25" d="M427.72,489.1a9.89,9.89,0,0,1,9.9,9.89v9H435.1v-2.41l-.4.39a9.9,9.9,0,1,1-7-16.91Zm0,17.27a7.38,7.38,0,1,0-7.38-7.38A7.39,7.39,0,0,0,427.72,506.37Z" transform="translate(-0.14 0.14)"/>
    <path class="cls-25" d="M72.58,543.2a4.67,4.67,0,0,1-3.36-1.38,4.4,4.4,0,0,1-1.42-3.3,4.47,4.47,0,0,1,1.42-3.31,4.7,4.7,0,0,1,3.36-1.37,4.36,4.36,0,0,1,3.25,1.39,4.7,4.7,0,0,1,0,6.59A4.34,4.34,0,0,1,72.58,543.2Z" transform="translate(-0.14 0.14)"/>
    <path class="cls-25" d="M100.91,526h7.49a9.06,9.06,0,0,1,6,1.8,7.59,7.59,0,0,1,2.27,5.83,7.5,7.5,0,0,1-2.27,5.94,10.54,10.54,0,0,1-1,.69c.33.18.65.39,1,.61a6.58,6.58,0,0,1,2.26,5.18v5.15h-2.52v-5.15a4.26,4.26,0,0,0-1.58-3.42,5.25,5.25,0,0,0-3.74-1.22h-5.37v9.79h-2.52Zm13.21,7.6a5,5,0,0,0-1.58-4.11,6.17,6.17,0,0,0-4.1-1.22h-5v10.76h5a6.12,6.12,0,0,0,4.1-1.22A5.29,5.29,0,0,0,114.12,533.63Z" transform="translate(-0.14 0.14)"/>
    <path class="cls-25" d="M131.26,549.57a7.4,7.4,0,0,0,5.22-2.16,6.92,6.92,0,0,0,1.22-1.65h2.78l-.11.28a9.9,9.9,0,1,1,0-7.7,9.09,9.09,0,0,1,.75,3.1h-17.2a4.71,4.71,0,0,0,0,.75A7.39,7.39,0,0,0,131.26,549.57Zm6.84-10.15a7.38,7.38,0,0,0-13.68,0Z" transform="translate(-0.14 0.14)"/>
    <path class="cls-25" d="M145.45,542.23a9.9,9.9,0,1,1,9.89,9.9,9.4,9.4,0,0,1-4.21-1.08,8,8,0,0,1-3.16-2.74v10.08h-2.52Zm9.89,7.38a7.38,7.38,0,1,0-7.37-7.38A7.39,7.39,0,0,0,155.34,549.61Z" transform="translate(-0.14 0.14)"/>
    <path class="cls-25" d="M183.93,533.23h2.52V544a8.08,8.08,0,1,1-16.16,0V533.23h2.59V544a5.53,5.53,0,0,0,11.05,0Z" transform="translate(-0.14 0.14)"/>
    <path class="cls-25" d="M192.39,535.79v-2.52h1.83v-7.2h2.52v7.2h4.72v2.52h-4.72v15.44h-2.52V535.79Z" transform="translate(-0.14 0.14)"/>
    <path class="cls-25" d="M216,532.29a9.9,9.9,0,0,1,9.9,9.9v9h-2.52v-2.41l-.4.39a9.9,9.9,0,1,1-7-16.92Zm0,17.28a7.38,7.38,0,1,0-7.38-7.38A7.39,7.39,0,0,0,216,549.57Z" transform="translate(-0.14 0.14)"/>
    <path class="cls-25" d="M240.52,549.57a7.4,7.4,0,0,0,5.22-2.16,6.92,6.92,0,0,0,1.22-1.65h2.77l-.1.28a9.9,9.9,0,1,1,0-7.7l.1.25h-2.8a6.92,6.92,0,0,0-1.19-1.62,7.38,7.38,0,1,0-5.22,12.6Z" transform="translate(-0.14 0.14)"/>
    <path class="cls-25" d="M256.43,527a1.51,1.51,0,1,1-1.51,1.51A1.47,1.47,0,0,1,256.43,527Zm-1.29,6.19h2.52v18h-2.52Z" transform="translate(-0.14 0.14)"/>
    <path class="cls-25" d="M273.14,532.29a9.9,9.9,0,1,1-9.9,9.9A9.89,9.89,0,0,1,273.14,532.29Zm0,17.28a7.38,7.38,0,1,0-7.38-7.38A7.39,7.39,0,0,0,273.14,549.57Zm1.58-19H271.3l5.08-4.68h3.41Z" transform="translate(-0.14 0.14)"/>
    <path class="cls-25" d="M302,540.43a5.54,5.54,0,0,0-5.51-5.54,5.76,5.76,0,0,0-5.54,5.54v10.8h-2.52v-18H291v1.66c1-1.59,3.34-2.6,5.54-2.6a8.17,8.17,0,0,1,8.1,8.14v10.8H302Z" transform="translate(-0.14 0.14)"/>
    <path class="cls-25" d="M72.58,586.4A4.67,4.67,0,0,1,69.22,585a4.54,4.54,0,0,1,0-6.6A4.67,4.67,0,0,1,72.58,577a4.36,4.36,0,0,1,3.25,1.39,4.7,4.7,0,0,1,0,6.59A4.34,4.34,0,0,1,72.58,586.4Z" transform="translate(-0.14 0.14)"/>
    <path class="cls-25" d="M100.91,569.23h7.49a9.06,9.06,0,0,1,6,1.8,7.59,7.59,0,0,1,2.27,5.83,7.5,7.5,0,0,1-2.27,5.94,10.54,10.54,0,0,1-1,.69c.33.18.65.39,1,.61a6.58,6.58,0,0,1,2.26,5.18v5.15h-2.52v-5.15a4.26,4.26,0,0,0-1.58-3.42,5.25,5.25,0,0,0-3.74-1.22h-5.37v9.79h-2.52Zm13.21,7.6a5,5,0,0,0-1.58-4.11,6.17,6.17,0,0,0-4.1-1.22h-5v10.76h5a6.12,6.12,0,0,0,4.1-1.22A5.29,5.29,0,0,0,114.12,576.83Z" transform="translate(-0.14 0.14)"/>
    <path class="cls-25" d="M131.26,592.77a7.4,7.4,0,0,0,5.22-2.16A6.73,6.73,0,0,0,137.7,589h2.78l-.11.29a9.9,9.9,0,1,1,0-7.71,9.09,9.09,0,0,1,.75,3.1h-17.2a4.71,4.71,0,0,0,0,.75A7.39,7.39,0,0,0,131.26,592.77Zm6.84-10.15a7.38,7.38,0,0,0-13.68,0Z" transform="translate(-0.14 0.14)"/>
    <path class="cls-25" d="M155,592.77a7.4,7.4,0,0,0,5.22-2.16,7,7,0,0,0,1.23-1.65h2.77l-.11.29a9.9,9.9,0,1,1,0-7.71l.11.25h-2.81a6.65,6.65,0,0,0-1.19-1.62,7.38,7.38,0,1,0-5.22,12.6Z" transform="translate(-0.14 0.14)"/>
    <path class="cls-25" d="M182.16,576.43h2.52v10.76a8.08,8.08,0,1,1-16.16,0V576.43h2.59v10.76a5.53,5.53,0,0,0,11,0Z" transform="translate(-0.14 0.14)"/>
    <path class="cls-25" d="M201.21,578.27c-4.79,0-7.35,5.07-7.35,7.88v8.28h-2.52v-18h2.52v3.46a9.47,9.47,0,0,1,7.71-4.39Z" transform="translate(-0.14 0.14)"/>
    <path class="cls-25" d="M211.07,586.11c-2.91-.75-5.72-2-5.72-5.4,0-2.8,2.91-5.21,6.15-5.21a5.91,5.91,0,0,1,5.91,4.46h-2.7a3.2,3.2,0,0,0-3.21-2.16c-1.47,0-3.63,1-3.63,2.81,0,2.08,2.81,2.73,4.32,3.24,3.27,1.08,5.72,2.41,5.72,6.08,0,3.38-3,5.36-6.41,5.36s-6.66-2.3-6.66-6.15V589h2.56v.14c0,1.66,1.19,3.71,4.28,3.71,2.34,0,3.6-1.44,3.6-2.88C215.28,587.45,214,586.87,211.07,586.11Z" transform="translate(-0.14 0.14)"/>
    <path class="cls-25" d="M225.69,570.24a1.51,1.51,0,1,1-1.51,1.51A1.48,1.48,0,0,1,225.69,570.24Zm-1.3,6.19h2.52v18h-2.52Z" transform="translate(-0.14 0.14)"/>
    <path class="cls-25" d="M231.23,576.43H234l6.45,14.83,6.48-14.83h2.77l-7.85,18h-2.77Z" transform="translate(-0.14 0.14)"/>
    <path class="cls-25" d="M255.68,570.24a1.51,1.51,0,1,1-1.52,1.51A1.48,1.48,0,0,1,255.68,570.24Zm-1.3,6.19h2.52v18h-2.52Z" transform="translate(-0.14 0.14)"/>
    <path class="cls-25" d="M282.46,585.39a9.9,9.9,0,1,1-9.9-9.89,8.93,8.93,0,0,1,4.21,1.11,7.72,7.72,0,0,1,3.17,2.7V569.23h2.52Zm-9.9-7.38a7.38,7.38,0,1,0,7.38,7.38A7.39,7.39,0,0,0,272.56,578Z" transform="translate(-0.14 0.14)"/>
    <path class="cls-25" d="M296.68,575.5a9.89,9.89,0,0,1,9.9,9.89v9h-2.52V592l-.4.39a9.9,9.9,0,1,1-7-16.91Zm0,17.27a7.38,7.38,0,1,0-7.38-7.38A7.39,7.39,0,0,0,296.68,592.77Z" transform="translate(-0.14 0.14)"/>
    <path class="cls-25" d="M331.06,585.39a9.9,9.9,0,1,1-9.9-9.89,8.93,8.93,0,0,1,4.21,1.11,7.72,7.72,0,0,1,3.17,2.7V569.23h2.52Zm-9.9-7.38a7.38,7.38,0,1,0,7.38,7.38A7.39,7.39,0,0,0,321.16,578Z" transform="translate(-0.14 0.14)"/>
    <path class="cls-25" d="M72.58,629.6a4.67,4.67,0,0,1-3.36-1.38,4.54,4.54,0,0,1,0-6.6,4.67,4.67,0,0,1,3.36-1.38,4.36,4.36,0,0,1,3.25,1.39,4.7,4.7,0,0,1,0,6.59A4.34,4.34,0,0,1,72.58,629.6Z" transform="translate(-0.14 0.14)"/>
    <path class="cls-25" d="M113.12,636a10.8,10.8,0,0,0,7.66-3.2,10.61,10.61,0,0,0,1.19-1.4h3a12.53,12.53,0,0,1-2.34,3.16,13.39,13.39,0,0,1-9.5,4,13.46,13.46,0,1,1,0-26.92,13.39,13.39,0,0,1,9.5,4A12.4,12.4,0,0,1,125,618.7h-3a8.14,8.14,0,0,0-1.16-1.34,10.71,10.71,0,0,0-7.66-3.24,10.93,10.93,0,1,0,0,21.85Z" transform="translate(-0.14 0.14)"/>
    <path class="cls-25" d="M138.64,618.7a9.9,9.9,0,1,1-9.9,9.89A9.89,9.89,0,0,1,138.64,618.7Zm0,17.27a7.38,7.38,0,1,0-7.38-7.38A7.39,7.39,0,0,0,138.64,636Z" transform="translate(-0.14 0.14)"/>
    <path class="cls-25" d="M154.3,619.63h2.59v1.62a7,7,0,0,1,5.48-2.55,7.82,7.82,0,0,1,6.65,3.74A8.24,8.24,0,0,1,176,618.7a8.1,8.1,0,0,1,8.06,8.13v10.8h-2.59v-10.8a5.49,5.49,0,1,0-11,0v10.8h-2.59v-10.8a5.58,5.58,0,0,0-5.5-5.54,5.68,5.68,0,0,0-5.48,5.54v10.8H154.3Z" transform="translate(-0.14 0.14)"/>
    <path class="cls-25" d="M189.8,628.63a9.9,9.9,0,1,1,9.9,9.9,9.37,9.37,0,0,1-4.21-1.08,8,8,0,0,1-3.17-2.74v10.08H189.8Zm9.9,7.38a7.38,7.38,0,1,0-7.38-7.38A7.39,7.39,0,0,0,199.7,636Z" transform="translate(-0.14 0.14)"/>
    <path class="cls-25" d="M225.22,621.47c-4.79,0-7.34,5.07-7.34,7.88v8.28h-2.52v-18h2.52v3.46a9.43,9.43,0,0,1,7.7-4.39Z" transform="translate(-0.14 0.14)"/>
    <path class="cls-25" d="M238,618.7a9.9,9.9,0,1,1-9.9,9.89A9.89,9.89,0,0,1,238,618.7ZM238,636a7.38,7.38,0,1,0-7.38-7.38A7.39,7.39,0,0,0,238,636Z" transform="translate(-0.14 0.14)"/>
    <path class="cls-25" d="M253.66,619.63h2.59v1.62a7,7,0,0,1,5.47-2.55,7.82,7.82,0,0,1,6.66,3.74,8.24,8.24,0,0,1,6.95-3.74,8.11,8.11,0,0,1,8.06,8.13v10.8H280.8v-10.8a5.49,5.49,0,1,0-11,0v10.8h-2.59v-10.8a5.58,5.58,0,0,0-5.51-5.54,5.68,5.68,0,0,0-5.47,5.54v10.8h-2.59Z" transform="translate(-0.14 0.14)"/>
    <path class="cls-25" d="M291.89,613.44a1.51,1.51,0,1,1-1.51,1.51A1.47,1.47,0,0,1,291.89,613.44Zm-1.29,6.19h2.52v18H290.6Z" transform="translate(-0.14 0.14)"/>
    <path class="cls-25" d="M305.68,629.31c-2.92-.75-5.72-2-5.72-5.4,0-2.8,2.91-5.21,6.15-5.21a5.91,5.91,0,0,1,5.91,4.46h-2.7a3.21,3.21,0,0,0-3.21-2.16c-1.47,0-3.63,1-3.63,2.81,0,2.08,2.8,2.73,4.32,3.24,3.27,1.08,5.72,2.41,5.72,6.08,0,3.38-3,5.36-6.41,5.36s-6.66-2.3-6.66-6.15v-.18H302v.14c0,1.66,1.19,3.71,4.28,3.71,2.34,0,3.6-1.44,3.6-2.88C309.89,630.65,308.56,630.07,305.68,629.31Z" transform="translate(-0.14 0.14)"/>
    <path class="cls-25" d="M327.1,618.7a9.9,9.9,0,1,1-9.9,9.89A9.89,9.89,0,0,1,327.1,618.7Zm0,17.27a7.38,7.38,0,1,0-7.38-7.38A7.39,7.39,0,0,0,327.1,636Z" transform="translate(-0.14 0.14)"/>
    <path class="cls-25" d="M72.58,672.8a4.67,4.67,0,0,1-3.36-1.38,4.4,4.4,0,0,1-1.42-3.3,4.47,4.47,0,0,1,1.42-3.31,4.7,4.7,0,0,1,3.36-1.37,4.36,4.36,0,0,1,3.25,1.39,4.7,4.7,0,0,1,0,6.59A4.34,4.34,0,0,1,72.58,672.8Z" transform="translate(-0.14 0.14)"/>
    <path class="cls-25" d="M103.79,680.83h-2.52v-25.2h2.52v13.46L117,655.63H121l-12.13,12.24,12.13,13H117.4L107,669.74,103.79,673Z" transform="translate(-0.14 0.14)"/>
    <path class="cls-25" d="M126.22,656.64a1.51,1.51,0,1,1-1.51,1.51A1.47,1.47,0,0,1,126.22,656.64Zm-1.29,6.19h2.52v18h-2.52Z" transform="translate(-0.14 0.14)"/>
    <path class="cls-25" d="M135,655.63h2.52v25.2H135Z" transform="translate(-0.14 0.14)"/>
    <path class="cls-25" d="M152.82,661.9a9.9,9.9,0,1,1-9.89,9.89A9.88,9.88,0,0,1,152.82,661.9Zm0,17.27a7.38,7.38,0,1,0-7.37-7.38A7.39,7.39,0,0,0,152.82,679.17Z" transform="translate(-0.14 0.14)"/>
    <path class="cls-25" d="M168.49,662.83h2.59v1.62a7,7,0,0,1,5.47-2.55,7.85,7.85,0,0,1,6.66,3.74,8.23,8.23,0,0,1,6.94-3.74,8.11,8.11,0,0,1,8.07,8.13v10.8h-2.59V670a5.49,5.49,0,1,0-11,0v10.8h-2.59V670a5.58,5.58,0,0,0-5.51-5.54,5.67,5.67,0,0,0-5.47,5.54v10.8h-2.59Z" transform="translate(-0.14 0.14)"/>
    <path class="cls-25" d="M213.52,679.17a7.4,7.4,0,0,0,5.22-2.16,6.92,6.92,0,0,0,1.22-1.65h2.77l-.1.29a9.9,9.9,0,1,1,0-7.71,9.09,9.09,0,0,1,.75,3.1h-17.2a4.71,4.71,0,0,0,0,.75A7.39,7.39,0,0,0,213.52,679.17ZM220.36,669a7.38,7.38,0,0,0-13.68,0Z" transform="translate(-0.14 0.14)"/>
    <path class="cls-25" d="M228.43,665.39v-2.52h1.83v-7.2h2.52v7.2h4.72v2.52h-4.72v15.44h-2.52V665.39Z" transform="translate(-0.14 0.14)"/>
    <path class="cls-25" d="M253.84,664.67c-4.79,0-7.34,5.07-7.34,7.88v8.28H244v-18h2.52v3.46a9.43,9.43,0,0,1,7.7-4.39Z" transform="translate(-0.14 0.14)"/>
    <path class="cls-25" d="M266.62,661.9a9.9,9.9,0,1,1-9.9,9.89A9.89,9.89,0,0,1,266.62,661.9Zm0,17.27a7.38,7.38,0,1,0-7.38-7.38A7.39,7.39,0,0,0,266.62,679.17Z" transform="translate(-0.14 0.14)"/>
    <path class="cls-25" d="M312.52,671.79a9.9,9.9,0,1,1-9.9-9.89,8.93,8.93,0,0,1,4.21,1.11,7.72,7.72,0,0,1,3.17,2.7V655.63h2.52Zm-9.9-7.38a7.38,7.38,0,1,0,7.38,7.38A7.39,7.39,0,0,0,302.62,664.41Z" transform="translate(-0.14 0.14)"/>
    <path class="cls-25" d="M327.1,679.17a7.42,7.42,0,0,0,5.22-2.16,6.92,6.92,0,0,0,1.22-1.65h2.77l-.1.29a9.9,9.9,0,1,1,0-7.71A9.09,9.09,0,0,1,337,671h-17.2a4.71,4.71,0,0,0,0,.75A7.39,7.39,0,0,0,327.1,679.17ZM333.94,669a7.38,7.38,0,0,0-13.68,0Z" transform="translate(-0.14 0.14)"/>
    <path class="cls-25" d="M354.24,662.83h2.59v1.62a7,7,0,0,1,5.48-2.55,7.85,7.85,0,0,1,6.66,3.74,8.23,8.23,0,0,1,6.94-3.74A8.11,8.11,0,0,1,384,670v10.8h-2.6V670a5.49,5.49,0,1,0-11,0v10.8h-2.6V670a5.58,5.58,0,0,0-5.5-5.54,5.68,5.68,0,0,0-5.48,5.54v10.8h-2.59Z" transform="translate(-0.14 0.14)"/>
    <path class="cls-25" d="M399.28,661.9a9.89,9.89,0,0,1,9.9,9.89v9h-2.52v-2.41l-.4.39a9.9,9.9,0,1,1-7-16.91Zm0,17.27a7.38,7.38,0,1,0-7.38-7.38A7.39,7.39,0,0,0,399.28,679.17Zm1.65-19h-3.42l5.08-4.68H406Z" transform="translate(-0.14 0.14)"/>
    <path class="cls-25" d="M420.66,672.51c-2.91-.75-5.72-2-5.72-5.4,0-2.8,2.91-5.21,6.15-5.21a5.91,5.91,0,0,1,5.91,4.46h-2.7a3.2,3.2,0,0,0-3.21-2.16c-1.47,0-3.63,1-3.63,2.81,0,2.08,2.81,2.73,4.32,3.24,3.27,1.08,5.72,2.41,5.72,6.08,0,3.38-3,5.36-6.41,5.36s-6.65-2.3-6.65-6.15v-.18H417v.14c0,1.66,1.19,3.71,4.28,3.71,2.34,0,3.6-1.44,3.6-2.88C424.87,673.85,423.54,673.27,420.66,672.51Z" transform="translate(-0.14 0.14)"/>
</svg>

