<svg xmlns="http://www.w3.org/2000/svg" width="2560" height="1440" viewBox="0 0 2560 1440">
    <defs>
        <style>
            .cls-1{fill:#95bc11;}
            .cls-2{fill:#009ba7;}
            .cls-3{fill:#fefefe;}
            .cls-4{fill:#000002;}
            .cls-5{fill:#fafdfd;}
            .cls-6{fill:#e5f5f6;}
            .cls-7{fill:#e6f6f7;}
            .cls-8{fill:#f0f9fa;}
            .cls-9{fill:#e4f5f6;}
            .cls-10{fill:#eef9f9;}
            .cls-11{fill:#ecf8f9;}
            .cls-12{fill:#ebf8f8;}
            .cls-13{fill:#e9f7f7;}
            .cls-14{fill:#ceeef0;}
            .cls-15{fill:#dcf2f4;}
            .cls-16{fill:#e7f6f7;}
            .cls-17{fill:#edf8f9;}
            .cls-18{fill:#b9e6e9;}
            .cls-19{fill:#eef8f9;}
            .cls-20{fill:#019da8;}
            .cls-21{fill:#009ca8;}
            .cls-22{fill:#029da9;}
            .cls-23{fill:#019ca8;}
            .cls-24{fill:#019da9;}
            .cls-25{fill:#fff;}
            .cls-26{fill:none;}
        </style>
    </defs>
    <path class="cls-1" d="M2152.19,1164c34.63,9.7,67.9,17.66,91.43,43.29,15.67,17.07,10.83,41-11,59.39-3.06-23-9.36-44.41-28.61-60.49,8.86,17,15.52,34.38,14,53.77-1.18,15-3.83,17.21-19.21,13.07-21.06-5.68-30.5-17.19-31.46-39-.37-8.32-.07-16.66-.08-25C2167.2,1184.87,2167.2,1184.87,2152.19,1164Z" transform="translate(-0.14 0.14)"/>
    <path class="cls-1" d="M2312,1224.55a60.4,60.4,0,0,0-21.4,29.53,145.28,145.28,0,0,1-7.47,16.63,21.41,21.41,0,0,1-10.76,10.37c-8.85,3.81-19.25,5.7-26.16-.67-5.56-5.11,0-13.74,4.19-18.35,8.26-9.14,9.44-19.21,9-30.11-.2-5.35,2.53-7.47,8-7.44C2282.32,1224.61,2297.16,1224.55,2312,1224.55Z" transform="translate(-0.14 0.14)"/>
    <path class="cls-2" d="M149.89,50C205.61,49.73,251.37,96.09,250,152.57c-1.3,52.66-44.57,97.89-100.91,97.43-55.76-.46-100.15-46.58-99-102.09C51.1,94.05,95.35,49.91,149.89,50Z" transform="translate(-0.14 0.14)"/>
    <path class="cls-3" d="M56.37,150.2a93.63,93.63,0,1,1,187.26-.3c0,53-42.8,92.78-91.68,93.74C99.45,244.67,56.41,202.16,56.37,150.2Z" transform="translate(-0.14 0.14)"/>
    <path class="cls-2" d="M236.73,150.08a86.78,86.78,0,1,1-86.26-86.94C200.63,63.42,237.31,104.72,236.73,150.08Z" transform="translate(-0.14 0.14)"/>
    <path class="cls-4" d="M164.67,121.14c0-4.25,0-8.51,0-12.76,0-3.66,1.62-5.24,5.3-5.26,4.51,0,9,0,13.53,0a18,18,0,0,1,17.59,18.32A17.69,17.69,0,0,1,183.35,139c-4.5,0-9,0-13.52.05-3.25,0-5.1-1.63-5.14-4.9C164.64,129.82,164.67,125.48,164.67,121.14Z" transform="translate(-0.14 0.14)"/>
    <path class="cls-4" d="M135.07,119.39c0,4.75,0,9.49,0,14.23,0,3.68-1.64,5.51-4.84,5.49-2.81,0-4.33-1.9-4.34-5.4,0-8.41,0-16.83,0-25.24,0-2.26.54-4.09,2.71-5a5,5,0,0,1,5.8,1.36q7.78,7.71,15.6,15.39c.9.88,1.86,1.71,2.78,2.55.88-.57.49-1.31.5-1.91,0-4.5-.05-9,.07-13.51.07-2.67,1.8-4.18,4.44-4.24s4.45,1.46,4.48,4.14c.09,9.26.05,18.52,0,27.79a3.76,3.76,0,0,1-2.64,3.7,4.71,4.71,0,0,1-5.18-1c-5.64-5.54-11.31-11-16.93-16.59a18.43,18.43,0,0,1-1.69-2.21Z" transform="translate(-0.14 0.14)"/>
    <path class="cls-5" d="M134.05,173.83c-3.57,0-7.14.06-10.71,0-3.16-.07-4.24-1.18-4.26-4.38q-.06-10.32,0-20.66c0-3.5,1.24-4.64,4.84-4.65q10.2,0,20.4,0c3,0,4.49,1.25,4.54,3.61.06,2.59-1.4,3.86-4.51,3.87-5.36,0-10.71,0-16.07,0-1.37,0-2,.3-1.93,1.82s.42,1.92,1.89,1.89q6.38-.12,12.75,0c3.11.05,4.93,2.45,4,5a3.51,3.51,0,0,1-3.33,2.29,87.74,87.74,0,0,1-13,0c-1.25-.06-2.34,0-2.29,1.83,0,1.5.42,2.11,2,2.08,5.35-.08,10.71,0,16.06,0,3.1,0,4.36,1.05,4.41,3.61s-1.28,3.67-4.36,3.71C141,173.87,137.53,173.84,134.05,173.83Z" transform="translate(-0.14 0.14)"/>
    <path class="cls-5" d="M110.23,162.58c1.72,1.64,3.29,3.06,4.79,4.57,2,2,2.17,3.71.72,5.35s-3.93,1.79-5.91,0c-3-2.66-6-5.28-8.73-8.21-1.7-1.85-3.63-1.45-5.6-1.5-1.07,0-.82.88-.83,1.51,0,1.78.06,3.57,0,5.35-.15,2.62-1.63,4.1-3.91,4.08s-3.62-1.4-3.63-4.21q0-10.59,0-21.19c0-2.71,1.31-4.16,4-4.21,5.69-.09,11.4-.17,17.09,0a9.27,9.27,0,0,1,3.58,17.67C111.33,162.08,110.87,162.28,110.23,162.58Z" transform="translate(-0.14 0.14)"/>
    <path class="cls-5" d="M158.55,157.73c0,3.82,0,7.65,0,11.48,0,2.95-1.47,4.63-3.91,4.61s-3.64-1.57-3.65-4.51c0-6.8,0-13.61,0-20.41,0-1.9.28-3.54,2.27-4.39s3.55.08,5,1.47q6.36,6.26,12.77,12.46c.66.64,1.34,1.24,2.47,2.29,0-4.29,0-8.06,0-11.82,0-1.5.14-3,1.44-3.89a3.65,3.65,0,0,1,3.82-.55,3.51,3.51,0,0,1,2.29,3.36c.06,7.48,0,15,0,22.45a3.38,3.38,0,0,1-2.4,3.27,4.2,4.2,0,0,1-4.63-1.27c-3.75-3.7-7.51-7.39-11.23-11.13-1.24-1.24-2.37-2.6-3.54-3.9Z" transform="translate(-0.14 0.14)"/>
    <path class="cls-4" d="M105.09,117.46c-3.12,6.14-6.21,12.26-9.32,18.38-1.54,3-3.9,4.07-6.33,2.83s-3-3.62-1.53-6.57q6.59-13.2,13.3-26.35c1.85-3.61,6.17-3.78,8.05-.17,4.75,9.09,9.31,18.29,13.84,27.5a4,4,0,0,1-2,5.56c-2.34,1.12-4.65.39-6-2.17-2.91-5.56-5.69-11.19-8.53-16.78A5,5,0,0,0,105.09,117.46Z" transform="translate(-0.14 0.14)"/>
    <path class="cls-5" d="M198,144.13c3.49,0,7,0,10.46,0,2.77,0,4.39,1.5,4.33,3.87s-1.56,3.52-4.29,3.61c-2.2.08-5.05-.93-6.41.42s-.44,4.37-.49,6.64c-.09,3.65,0,7.31,0,11,0,2.69-1.42,4.19-3.73,4.16s-3.58-1.49-3.59-4.24c0-5.28-.06-10.55,0-15.82,0-1.65-.41-2.3-2.12-2.17a45.66,45.66,0,0,1-5.1,0c-2.53-.07-4-1.39-4-3.58s1.36-3.8,4-3.87C190.72,144.06,194.38,144.13,198,144.13Z" transform="translate(-0.14 0.14)"/>
    <path class="cls-4" d="M212.84,121.06c0,4.33,0,8.67,0,13,0,3.31-1.48,4.88-4.46,4.94s-4.84-1.56-4.87-4.88q-.1-13.12,0-26.25a4.41,4.41,0,0,1,4.81-4.75c2.88,0,4.5,1.76,4.52,4.94C212.87,112.39,212.84,116.73,212.84,121.06Z" transform="translate(-0.14 0.14)"/>
    <path class="cls-1" d="M150.42,226.6c-.58-5.36-2-10-6.4-14.3,2.13,4.36,3.65,8.11,3.37,12.36-.25,3.78-.84,4.29-4.48,3.16-4.1-1.27-6.06-4-6.2-8.81q-.09-2.94,0-5.86c.11-3.39-.27-6.61-2.86-9.29,7.22,1.85,14.48,3.63,19.31,9.88C156,217.45,154.89,222.25,150.42,226.6Z" transform="translate(-0.14 0.14)"/>
    <path class="cls-1" d="M167.16,217.05a13.66,13.66,0,0,0-4.52,6.64,22.15,22.15,0,0,1-1.85,4.16,5.73,5.73,0,0,1-6.69,2.28c-1-.36-1.39-.91-1.06-1.91a6.92,6.92,0,0,1,.81-2.12,10.63,10.63,0,0,0,2.27-7.67c-.08-1.14.73-1.39,1.69-1.38Z" transform="translate(-0.14 0.14)"/>
    <path class="cls-6" d="M138,194.44c-.24.39.77,1.88-.6,1.85-2.48,0-5.74,1.38-6.78-2.49a3.77,3.77,0,0,1,6.89-2.87A4.63,4.63,0,0,1,138,194.44Z" transform="translate(-0.14 0.14)"/>
    <path class="cls-7" d="M177.47,191.38c-.07,1.28.32,2.82-1,4.07a3.63,3.63,0,0,1-5.22.18c-1.67-1.52-1.73-7.21-.07-8.76a3.66,3.66,0,0,1,4-.77,3.26,3.26,0,0,1,2.28,3C177.49,189.81,177.47,190.49,177.47,191.38Z" transform="translate(-0.14 0.14)"/>
    <path class="cls-8" d="M123,195.76c-.43,1.47.23,2.88-.75,4.69,0-3.23-.19-5.91.06-8.56.18-1.92,2.36-3.14,4.19-2.76a3.88,3.88,0,0,1,2.95,4.63,3.67,3.67,0,0,1-4.19,2.85A14.31,14.31,0,0,1,123,195.76Z" transform="translate(-0.14 0.14)"/>
    <path class="cls-9" d="M114.42,189a3.85,3.85,0,0,1,3.81,3.92,4,4,0,0,1-3.79,3.7,3.81,3.81,0,0,1,0-7.62Z" transform="translate(-0.14 0.14)"/>
    <path class="cls-10" d="M109,190c0-.87,0-1.54,0-2.2s-.21-1.19.56-2c0,2.59.06,4.91,0,7.22a3.6,3.6,0,0,1-4,3.53A3.79,3.79,0,1,1,107,189.2C107.63,189.39,108.21,189.7,109,190Z" transform="translate(-0.14 0.14)"/>
    <path class="cls-11" d="M150.41,193.79c0,2.16,0,2-.83,2.19-1.91.34-3.85,1.34-5.58-.46a3.91,3.91,0,0,1,2.75-6.47C149.06,189.09,150.4,190.83,150.41,193.79Z" transform="translate(-0.14 0.14)"/>
    <path class="cls-12" d="M210.65,193.85c0,2.07,0,1.9-.88,2.1-1.93.46-3.85,1.31-5.57-.48a3.58,3.58,0,0,1-.93-2.56,3.64,3.64,0,0,1,3.78-3.86C209.37,189.11,210.64,190.81,210.65,193.85Z" transform="translate(-0.14 0.14)"/>
    <path class="cls-13" d="M101.4,193.24a3.85,3.85,0,0,1-4,3.4,3.81,3.81,0,0,1,.53-7.59A3.84,3.84,0,0,1,101.4,193.24Z" transform="translate(-0.14 0.14)"/>
    <path class="cls-14" d="M182.27,192.52c-3.62-.68-2.61,2-2.81,3.83-1.11-.21-.8-1-.81-1.59,0-2.37-.06-4.75,0-7.12,0-1,.42-2.06,1.66-2.23s1.8.58,2.27,1.78c-1.1.23-2.47-2-3,.28a10.36,10.36,0,0,0,0,3.29C179.74,192.4,181.68,190.83,182.27,192.52Z" transform="translate(-0.14 0.14)"/>
    <path class="cls-15" d="M161.16,189.5a38.68,38.68,0,0,0,0,4c.12,1.14.64,2.18,2.08,2.08s1.86-.92,1.9-2.22-.25-2.69.21-4c1.11,1.6,1.13,5.09,0,6.28a2.63,2.63,0,0,1-3.65.52C160.25,195.18,159.81,192.36,161.16,189.5Z" transform="translate(-0.14 0.14)"/>
    <path class="cls-16" d="M159.14,189.48c-.62.77-1.25.49-1.8.53-.83.05-1.85-.17-2,1s.86,1.24,1.73,1.31c.68.06,1.42.14,1.77.8a2.06,2.06,0,0,1-.72,3.06c-.9.54-1.82.49-3.66-.26a4.17,4.17,0,0,1,2.48-.35c.78,0,1.37-.3,1.45-1.07a1.2,1.2,0,0,0-1.21-1.36c-1.75,0-3.13-.37-2.72-2.56C154.77,189.15,156.41,188.75,159.14,189.48Z" transform="translate(-0.14 0.14)"/>
    <path class="cls-6" d="M191.18,195.52a2.73,2.73,0,0,1-4.22.09,4.09,4.09,0,0,1-.29-5.32c1.21-1.44,2.89-1.57,4.81-.12-1.28,0-2.35-.5-3.25.12a2.88,2.88,0,0,0-1.57,2.71C186.82,194.9,188.41,195.79,191.18,195.52Z" transform="translate(-0.14 0.14)"/>
    <path class="cls-17" d="M201.86,196.34c-1-2.2.75-6.17-3.39-6.22-4.3-.05-2.27,4.07-3.48,6.18,0-2.28-1.18-4.79,1.37-6.57a3.35,3.35,0,0,1,4.25.08C202.88,191.6,202,194,201.86,196.34Z" transform="translate(-0.14 0.14)"/>
    <path class="cls-3" d="M184.34,196.35a10.05,10.05,0,0,1,0-6.78Z" transform="translate(-0.14 0.14)"/>
    <path class="cls-18" d="M91.12,187c-1-.24-2,.28-3.42-.82a23.18,23.18,0,0,1,7.39,0c-1.15,1-2.08.65-2.93.68C91.78,186.57,91.47,187,91.12,187Z" transform="translate(-0.14 0.14)"/>
    <path class="cls-19" d="M143.24,189.58c-4.14,1-3.43,4.1-3.69,7.19C138.52,192.53,139.16,188.9,143.24,189.58Z" transform="translate(-0.14 0.14)"/>
    <path class="cls-5" d="M91.12,187c.3-.54.64-.6,1-.1-.82,3.1.21,6.33-1,9.42Z" transform="translate(-0.14 0.14)"/>
    <path class="cls-5" d="M193.1,196.23a11.65,11.65,0,0,1,0-6.62Z" transform="translate(-0.14 0.14)"/>
    <path class="cls-2" d="M173.86,121c0-2.3.07-4.59,0-6.88-.06-1.39.36-2.06,1.82-2a62.73,62.73,0,0,1,7.87.26c4.7.76,8.24,4.24,8.51,8.47.24,3.77-2.75,7.48-7.14,8.83-3.24,1-6.59.25-9.88.52-1.26.11-1.15-.95-1.16-1.8Z" transform="translate(-0.14 0.14)"/>
    <path class="cls-2" d="M102.35,151.61c1.69,0,3.39,0,5.08,0,1.32,0,2.2,0,2.18,1.82,0,1.62-.55,2-2,2-3.64-.09-7.28-.1-10.92,0-1.52,0-2-.36-2-2,0-1.78.83-1.88,2.17-1.83C98.62,151.66,100.49,151.61,102.35,151.61Z" transform="translate(-0.14 0.14)"/>
    <path class="cls-20" d="M134.39,195.69c-1.84-.12-2.92-.94-2.94-2.82A2.48,2.48,0,0,1,134,190a2.62,2.62,0,0,1,3.06,2.63C137.16,194.45,136.09,195.43,134.39,195.69Z" transform="translate(-0.14 0.14)"/>
    <path class="cls-21" d="M176.69,191.11a14.92,14.92,0,0,1,0,1.77,2.72,2.72,0,0,1-3,2.77c-1.76,0-2.55-1.16-2.83-2.68a13.57,13.57,0,0,1,0-2.78c0-1.94.92-3.4,2.92-3.45s2.93,1.38,3,3.36v1Z" transform="translate(-0.14 0.14)"/>
    <path class="cls-22" d="M125.7,195.69a2.84,2.84,0,1,1,.18-5.67,2.64,2.64,0,0,1,2.78,2.92C128.65,194.69,127.57,195.68,125.7,195.69Z" transform="translate(-0.14 0.14)"/>
    <path class="cls-23" d="M114.5,190a2.75,2.75,0,0,1,2.72,3,2.52,2.52,0,0,1-2.68,2.71,2.57,2.57,0,0,1-2.9-2.75C111.58,191.07,112.71,190.19,114.5,190Z" transform="translate(-0.14 0.14)"/>
    <path class="cls-22" d="M106.1,190a2.83,2.83,0,1,1-3,2.75A2.73,2.73,0,0,1,106.1,190Z" transform="translate(-0.14 0.14)"/>
    <path class="cls-22" d="M146.6,190c2,.09,3,1.18,2.93,2.91a2.59,2.59,0,0,1-3,2.75,2.64,2.64,0,0,1-2.73-2.76A2.7,2.7,0,0,1,146.6,190Z" transform="translate(-0.14 0.14)"/>
    <path class="cls-24" d="M206.66,195.68a2.73,2.73,0,0,1-2.58-3,2.85,2.85,0,0,1,5.7.25C209.75,194.64,208.67,195.67,206.66,195.68Z" transform="translate(-0.14 0.14)"/>
    <path class="cls-22" d="M97.51,195.69a2.7,2.7,0,0,1-2.7-2.92,2.86,2.86,0,0,1,5.72,0C100.56,194.51,99.55,195.63,97.51,195.69Z" transform="translate(-0.14 0.14)"/>
    <path class="cls-25" d="M1992.64,1103v-3.36H2015V1103h-9.5v30.24h-3.36V1103Z" transform="translate(-0.14 0.14)"/>
    <path class="cls-25" d="M2031.09,1108a13.21,13.21,0,1,1-13.2,13.21A13.2,13.2,0,0,1,2031.09,1108Zm0,23a9.85,9.85,0,1,0-9.84-9.84A9.85,9.85,0,0,0,2031.09,1131Z" transform="translate(-0.14 0.14)"/>
    <path class="cls-25" d="M2076.45,1121.17a13.2,13.2,0,1,1-13.2-13.21,12,12,0,0,1,5.62,1.49,10.2,10.2,0,0,1,4.22,3.6v-13.44h3.36Zm-13.2-9.85a9.85,9.85,0,1,0,9.84,9.85A9.86,9.86,0,0,0,2063.25,1111.32Z" transform="translate(-0.14 0.14)"/>
    <path class="cls-25" d="M2095.89,1108a13.21,13.21,0,1,1-13.2,13.21A13.2,13.2,0,0,1,2095.89,1108Zm0,23a9.85,9.85,0,1,0-9.84-9.84A9.85,9.85,0,0,0,2095.89,1131Z" transform="translate(-0.14 0.14)"/>
    <path class="cls-25" d="M2131.17,1121.21a13.2,13.2,0,1,1,13.2,13.2,12.54,12.54,0,0,1-5.62-1.44,10.57,10.57,0,0,1-4.22-3.64v13.44h-3.36Zm13.2,9.84a9.84,9.84,0,1,0-9.84-9.84A9.85,9.85,0,0,0,2144.37,1131.05Z" transform="translate(-0.14 0.14)"/>
    <path class="cls-25" d="M2175.57,1108a13.2,13.2,0,0,1,13.2,13.21v12h-3.36V1130l-.53.53a13.2,13.2,0,1,1-9.31-22.57Zm0,23a9.85,9.85,0,1,0-9.84-9.84A9.85,9.85,0,0,0,2175.57,1131Z" transform="translate(-0.14 0.14)"/>
    <path class="cls-25" d="M2210.56,1111.66c-6.38,0-9.79,6.77-9.79,10.51v11h-3.36v-24h3.36v4.61A12.63,12.63,0,0,1,2211,1108Z" transform="translate(-0.14 0.14)"/>
    <path class="cls-25" d="M2227.6,1108a13.2,13.2,0,0,1,13.2,13.21v12h-3.36V1130l-.52.53a13.21,13.21,0,1,1-9.32-22.57Zm0,23a9.85,9.85,0,1,0-9.84-9.84A9.85,9.85,0,0,0,2227.6,1131Z" transform="translate(-0.14 0.14)"/>
    <path class="cls-25" d="M2272.19,1122.12c-3.89-1-7.63-2.68-7.63-7.2,0-3.74,3.89-7,8.21-7,5,0,7.63,4,7.87,6H2277a4.26,4.26,0,0,0-4.27-2.88c-2,0-4.85,1.34-4.85,3.74,0,2.78,3.74,3.65,5.76,4.32,4.37,1.44,7.63,3.22,7.63,8.11,0,4.52-4,7.16-8.54,7.16s-8.88-3.08-8.88-8.21v-.24h3.41v.19c0,2.21,1.58,4.94,5.71,4.94,3.12,0,4.8-1.92,4.8-3.84C2277.81,1123.9,2276,1123.13,2272.19,1122.12Z" transform="translate(-0.14 0.14)"/>
    <path class="cls-25" d="M2306.71,1109.21h3.36v14.36a10.78,10.78,0,1,1-21.56,0v-14.36H2292v14.36a7.37,7.37,0,0,0,14.74,0Z" transform="translate(-0.14 0.14)"/>
    <path class="cls-25" d="M2350.34,1098.46a18,18,0,1,1-18,18A18,18,0,0,1,2350.34,1098.46Zm0,32.55a14.57,14.57,0,1,0-14.6-14.6A14.7,14.7,0,0,0,2350.34,1131Z" transform="translate(-0.14 0.14)"/>
    <path class="cls-25" d="M2387.49,1116.32h-6.15v16.89H2378v-16.89h-2.49V1113H2378v-8.07a6.44,6.44,0,0,1,12.87,0h-3.36a3.08,3.08,0,0,0-6.15,0V1113h9.51v20.25h-3.36Z" transform="translate(-0.14 0.14)"/>
    <path class="cls-25" d="M2411.25,1131a9.87,9.87,0,0,0,7-2.89,9.45,9.45,0,0,0,1.63-2.2h3.7l-.15.38a13.21,13.21,0,1,1,0-10.27l.15.33h-3.75a9.24,9.24,0,0,0-1.58-2.16,9.84,9.84,0,1,0-7,16.81Z" transform="translate(-0.14 0.14)"/>
    <path class="cls-25" d="M2432.46,1101a2,2,0,1,1-2,2A2,2,0,0,1,2432.46,1101Zm-1.73,8.25h3.36v24h-3.36Z" transform="translate(-0.14 0.14)"/>
    <path class="cls-25" d="M2461.79,1118.81a7.38,7.38,0,0,0-7.34-7.39,7.69,7.69,0,0,0-7.4,7.39v14.4h-3.36v-24h3.36v2.21c1.3-2.11,4.47-3.46,7.4-3.46a10.89,10.89,0,0,1,10.8,10.85v14.4h-3.46Z" transform="translate(-0.14 0.14)"/>
    <path class="cls-25" d="M2484.69,1108a13.2,13.2,0,0,1,13.2,13.21v12h-3.36V1130l-.53.53a13.2,13.2,0,1,1-9.31-22.57Zm0,23a9.85,9.85,0,1,0-9.84-9.84A9.86,9.86,0,0,0,2484.69,1131Z" transform="translate(-0.14 0.14)"/>
    <path class="cls-26" d="M49.43,151l-49.29.46" transform="translate(-0.14 0.14)"/>
    <path class="cls-26" d="M148.37,49.57q0-24.85-.52-49.71" transform="translate(-0.14 0.14)"/>

    <polygon fill-opacity=".06" points="0 1379.64032 502.56256 996.40704 1926.3872 1443.5136 0 1443.5136"/>
    <polygon fill-opacity=".03" points="502.03648 996.40704 362.61632 0 0 0 0 853.12512"/>
    <polygon fill-opacity=".05" points="1280 0 2560 1292.7744 2560 563.1232 2239.76576 0"/>
</svg>
